<svg version="1.1"
	 xmlns="http://www.w3.org/2000/svg" 
	 x="0px" y="0px" width="100%" height="100%" viewBox="0 -0.6 115 21" enable-background="new 0 -0.6 115 21" xml:space="preserve"
	>
<defs>
</defs>
<path fill="#1e1e1e" d="M31.2,18.1L31.2,18.1c0.9,1.1,2.5,1.7,4.4,1.7h1c4.1,0,7-1,7-5.7v-2.9c0-4.3-1.9-5.9-6.9-5.9h-1.6
	c-2.2,0-3.4,0.7-4,1.5h-0.1V0h-3.1v19.4h3.1L31.2,18.1L31.2,18.1z M31.2,11.1c0-3.2,2.1-3.3,4.9-3.3h0.3c2.7,0,4.2,0.5,4.2,3.6v2.2
	c0,2.6-0.7,3.7-4.3,3.7h-0.7c-3.5,0-4.4-1-4.4-3.6L31.2,11.1L31.2,11.1z M80.6,5.7h-4.1V4.5c0-1.2,0.8-2.1,2.4-2.1l3,0V0h-4
	c-2.4,0-4.5,1.3-4.5,4.5v1.2h-1.6v2.5h1.6v11.6h3.1V8.2h4.1L80.6,5.7L80.6,5.7z M63,15.3c0,3.2,2.1,4.5,4.5,4.5h3.8v-2.5h-3
	c-1.7,0-2.2-0.8-2.2-2V8.2h4.1V5.7H66V0h-3v5.7h-1.6v2.5H63L63,15.3L63,15.3z M98.1,0h3.1v3.1h-3.1V0z M98.1,5.4h3.1v14.4h-3.1V5.4z
	 M51.6,19.8h2.7c3.7,0,5.4-1.2,5.8-3.2l-2.7-0.8c-0.4,1.3-1.5,1.6-3.9,1.6h-0.7c-3.9,0-4.5-0.5-4.5-3.6l0,0h12.1v-2.7
	c0-4.8-2.5-5.7-6.5-5.7h-1.5c-3.2,0-7,0.6-7,5.5v3.4C45.3,19,48.6,19.8,51.6,19.8L51.6,19.8z M48.2,10.9c0-2.8,1.3-3.1,4.4-3.1
	l0.6,0c3.5,0,4,0.9,4,2.7l0,0.8l-9.1,0L48.2,10.9L48.2,10.9z M88.6,5.4h-1.1c-4.1,0-5.9,1.3-6,3.2l2.9,1c0.1-1.3,1.6-1.7,3.9-1.7
	c3.4,0,4.2,0.2,4.2,2.6v1.3h-0.1c-0.8-1-1.8-1.3-4.4-1.3h-1.2c-3.9,0-6.2,1-6.2,4.1v0.9c0,2.5,1,4.4,5,4.4h3c2.9,0,3.2-0.5,3.8-1.3
	h0v1.3h3v-9.3C95.4,6.5,92.7,5.4,88.6,5.4L88.6,5.4z M92.4,15.5c0,1.4-0.9,1.9-4.5,1.9H87c-3.1,0-3.5-0.6-3.5-1.8v-0.8
	c0-1.4,0.8-1.9,3.3-1.9h1.4c2.3,0,4.1,0.5,4.1,2L92.4,15.5L92.4,15.5z M110.5,5.4c-1.4,0-2.7,0.5-3.6,1.9h-0.1V5.4h-2.9v14.4h3.1
	v-8.7c0-1.8,1-3.3,3.4-3.3c1.7,0,2.5,0.5,2.7,0.9l1.9-1.3C114.5,6.2,113.2,5.4,110.5,5.4L110.5,5.4z M22.5,0h-7.9v4h-4.2l8.2,9.5
	L26.8,4h-4.2L22.5,0z M0,15.7h4.2v4h7.9v-4h4.2L8.2,6.2L0,15.7z"/>
</svg>
