<svg id="Layer_1" data-name="Layer 1" xmlns="http://www.w3.org/2000/svg" viewBox="0 0 37.451 37.45"><defs><style>.cls-1{fill:#3f9bb2;}.cls-2{fill:none;stroke:#3f9bb2;stroke-width:1.5px;}</style></defs><path class="cls-1" d="M25.527,7.237,28.562,4.2l4.685,4.684-3.035,3.035a13.346,13.346,0,0,1,.727,1.394l4.429-4.429L28.562,2.082,24.133,6.51A13.247,13.247,0,0,1,25.527,7.237Z"/><path class="cls-1" d="M11.922,30.212,8.887,33.247,4.2,28.562l3.036-3.035a13.446,13.446,0,0,1-.727-1.394l-4.43,4.429,6.806,6.806,4.429-4.429A13.446,13.446,0,0,1,11.922,30.212Z"/><path class="cls-1" d="M30.212,25.527l3.036,3.035-4.685,4.685-3.035-3.035a13.446,13.446,0,0,1-1.394.727l4.429,4.429,6.806-6.806L30.94,24.134A13.15,13.15,0,0,1,30.212,25.527Z"/><path class="cls-1" d="M31.182,13.912a13.363,13.363,0,0,1,.479,1.5h4.29v6.625h-4.29a13.358,13.358,0,0,1-.478,1.5h6.268V13.912Z"/><path class="cls-1" d="M22.038,31.66v4.29H15.412V31.66a13.156,13.156,0,0,1-1.5-.478V37.45h9.626V31.182A13.156,13.156,0,0,1,22.038,31.66Z"/><path class="cls-1" d="M15.412,5.789V1.5h6.626V5.789a13.363,13.363,0,0,1,1.5.479V0H13.912V6.268A13.363,13.363,0,0,1,15.412,5.789Z"/><path class="cls-1" d="M7.238,11.923,4.2,8.887,8.887,4.2l3.036,3.035a13.33,13.33,0,0,1,1.393-.727L8.887,2.082,2.082,8.887l4.429,4.429A13.33,13.33,0,0,1,7.238,11.923Z"/><path class="cls-1" d="M5.79,22.037H1.5V15.412H5.79a13.156,13.156,0,0,1,.478-1.5H0v9.625H6.268A13.156,13.156,0,0,1,5.79,22.037Z"/><g id="Ellipse_7" data-name="Ellipse 7"><path class="cls-1" d="M18.725,32.093A13.368,13.368,0,1,1,32.093,18.725,13.383,13.383,0,0,1,18.725,32.093Zm0-25.236A11.868,11.868,0,1,0,30.593,18.725,11.881,11.881,0,0,0,18.725,6.857Z"/></g><path id="Path_234" data-name="Path 234" class="cls-2" d="M18.725,12.85a5.875,5.875,0,1,1-5.875,5.875A5.875,5.875,0,0,1,18.725,12.85Z"/></svg>