<?xml version="1.0" encoding="UTF-8"?><svg id="a" xmlns="http://www.w3.org/2000/svg" viewBox="0 0 37.5 37.5"><defs><style>.b{fill:#3f9bb2;}</style></defs><path class="b" d="M37.5,23.5V13.9h-6.3l.01,.03c-.086-.226-.173-.45-.271-.67l4.361-4.361-6.8-6.8-4.361,4.361c-.21-.093-.424-.177-.639-.26V0H13.9V6.201c-.215,.083-.429,.167-.639,.26L8.9,2.1,2.1,8.9l4.361,4.361c-.093,.21-.177,.424-.26,.639H0v9.6H6.201c.083,.215,.166,.429,.26,.639l-4.361,4.361,6.8,6.8,4.361-4.361c.208,.093,.426,.164,.639,.247v6.314h9.6v-6.302c.215-.082,.43-.165,.639-.259l4.361,4.361,6.8-6.8-4.361-4.361c.116-.26,.209-.531,.309-.8-.016,.054-.027,.107-.048,.161h6.3Zm-31.774-1.5H1.5v-6.6H5.726c-.268,1.058-.426,2.159-.426,3.3s.158,2.242,.426,3.3Zm30.274,0h-4.333c.271-1.057,.433-2.158,.433-3.3s-.159-2.243-.43-3.3h4.33v6.6ZM28.5,4.2l4.7,4.7-2.98,2.98c-1.148-1.935-2.765-3.552-4.7-4.7l2.98-2.98ZM15.4,1.5h6.6V5.726c-1.058-.268-2.159-.426-3.3-.426s-2.242,.158-3.3,.426V1.5ZM4.2,8.9l4.7-4.7,2.98,2.98c-1.935,1.148-3.552,2.765-4.7,4.7l-2.98-2.98Zm4.7,24.3l-4.7-4.7,2.98-2.98c1.148,1.935,2.765,3.552,4.7,4.7l-2.98,2.98Zm6.5,2.8v-4.333c1.057,.271,2.158,.433,3.3,.433s2.243-.159,3.3-.429v4.329h-6.6Zm3.3-5.3c-6.6,0-11.9-5.3-11.9-11.9S12.1,6.9,18.7,6.9s11.9,5.3,11.9,11.9-5.3,11.9-11.9,11.9Zm14.5-2.2l-4.7,4.7-2.98-2.98c1.935-1.148,3.552-2.765,4.7-4.7l2.98,2.98Z"/><path class="b" d="M18.7,12.1c-3.6,0-6.6,3-6.6,6.6s2.9,6.6,6.6,6.6,6.6-3,6.6-6.6-3-6.6-6.6-6.6Zm0,11.7c-2.8,0-5.1-2.3-5.1-5.1s2.3-5.1,5.1-5.1c2.9,0,5.1,2.3,5.1,5.1s-2.3,5.1-5.1,5.1Z"/></svg>