<?xml version="1.0" encoding="UTF-8"?><svg id="a" xmlns="http://www.w3.org/2000/svg" viewBox="0 0 56.038 56.039"><defs><style>.b{fill:#0a6684;}</style></defs><path class="b" d="M28.726,28.019L55.892,.854c.195-.195,.195-.512,0-.707s-.512-.195-.707,0L28.019,27.312,.854,.146C.658-.049,.342-.049,.146,.146S-.049,.658,.146,.854L27.312,28.019,.146,55.185c-.195,.195-.195,.512,0,.707,.098,.098,.226,.146,.354,.146s.256-.049,.354-.146L28.019,28.726l27.165,27.166c.098,.098,.226,.146,.354,.146s.256-.049,.354-.146c.195-.195,.195-.512,0-.707L28.726,28.019Z"/></svg>