<?xml version="1.0" encoding="utf-8"?>
<!-- Generator: Adobe Illustrator 26.2.1, SVG Export Plug-In . SVG Version: 6.00 Build 0)  -->
<svg version="1.1" id="Layer_1" xmlns="http://www.w3.org/2000/svg" xmlns:xlink="http://www.w3.org/1999/xlink" x="0px" y="0px"
	 viewBox="0 0 175.425 148.522" style="enable-background:new 0 0 175.425 148.522;" xml:space="preserve">
<style type="text/css">
	.st0{fill:url(#Path_1395_00000106866446565228791520000011538223060713197732_);}
	.st1{opacity:0.7;fill:url(#Path_1396-2_00000120526748161150872620000007093405091541149581_);enable-background:new    ;}
	.st2{fill:#008CB7;}
	.st3{fill:#FFFFFF;}
	.st4{opacity:0.7;fill:url(#Path_166_00000056396440433018426460000013914308099195895464_);enable-background:new    ;}
	.st5{fill:#307E71;}
	.st6{enable-background:new    ;}
	.st7{fill:#1DA0CF;}
	.st8{fill:#128822;}
	.st9{fill:#4CAFD3;}
	.st10{fill:#5FC975;}
</style>
<g id="Group_1453" transform="translate(-181.57 -126.739)">
	
		<linearGradient id="Path_1395_00000173852234130663565960000003645962440555677884_" gradientUnits="userSpaceOnUse" x1="-88.6678" y1="558.9654" x2="-87.8648" y2="560.0554" gradientTransform="matrix(148.522 0 0 -148.522 13352.4482 83318.0859)">
		<stop  offset="0" style="stop-color:#1DA7E1"/>
		<stop  offset="0.453" style="stop-color:#84D9C1"/>
		<stop  offset="1" style="stop-color:#CCE7F9"/>
	</linearGradient>
	<path id="Path_1395" style="fill:url(#Path_1395_00000173852234130663565960000003645962440555677884_);" d="M255.831,126.739
		c41.013,0,74.261,33.248,74.261,74.261s-33.248,74.261-74.261,74.261S181.57,242.013,181.57,201S214.818,126.739,255.831,126.739
		C255.831,126.739,255.831,126.739,255.831,126.739z"/>
	<g transform="matrix(1, 0, 0, 1, 181.57, 126.74)">
		
			<linearGradient id="Path_1396-2_00000065069668132625786920000006569825462578465976_" gradientUnits="userSpaceOnUse" x1="-274.249" y1="433.8407" x2="-275.18" y2="432.8847" gradientTransform="matrix(5.621065e-15 -91.799 -130.006 -7.960575e-15 56451.2773 -25146.9805)">
			<stop  offset="0" style="stop-color:#FFFFFF;stop-opacity:0.702"/>
			<stop  offset="1" style="stop-color:#8FD3E6"/>
		</linearGradient>
		
			<path id="Path_1396-2" style="opacity:0.7;fill:url(#Path_1396-2_00000065069668132625786920000006569825462578465976_);enable-background:new    ;" d="
			M45.419,29.547v82.455c-0.001,2.579,2.089,4.671,4.668,4.672c0.001,0,0.001,0,0.002,0h120.666c2.579,0,4.67-2.091,4.67-4.67
			c0-0.001,0-0.001,0-0.002V29.547c0.001-2.579-2.089-4.671-4.668-4.672c-0.001,0-0.001,0-0.002,0H50.089
			c-2.579,0-4.67,2.091-4.67,4.67C45.419,29.546,45.419,29.546,45.419,29.547z"/>
	</g>
	<rect id="Rectangle_1081" x="241.274" y="164.204" class="st2" width="102.831" height="66.701"/>
	<rect id="Rectangle_1082" x="235.72" y="160" class="st3" width="112.558" height="75.039"/>
	
		<linearGradient id="Path_166_00000115480854852485340210000001831579346081132983_" gradientUnits="userSpaceOnUse" x1="-87.0559" y1="556.5633" x2="-86.0559" y2="556.5633" gradientTransform="matrix(70.4658 0 0 -61.361 6343.1187 34349.3984)">
		<stop  offset="0" style="stop-color:#FFFFFF;stop-opacity:0.702"/>
		<stop  offset="1" style="stop-color:#8FD3E6"/>
	</linearGradient>
	
		<path id="Path_166_00000079471819145983884380000009594214938171684284_" style="opacity:0.7;fill:url(#Path_166_00000115480854852485340210000001831579346081132983_);enable-background:new    ;" d="
		M279.122,219.12h-10.194l-8.617,9.7l-8.794-9.7h-42.861v-51.661h70.46L279.122,219.12z"/>
	<rect id="Rectangle_1080" x="215.758" y="173.312" class="st3" width="55.648" height="38.483"/>
	<g id="Group_106_00000074412126757432895340000003024756954128640177_" transform="translate(250.501 182.392)">
		<g id="Line_32_00000154394493989140847430000010153359571192048263_">
			<rect x="-0.001" y="-0.25" class="st5" width="15.277" height="0.5"/>
		</g>
		<g id="Line_33_00000161592785034614681210000016673483237051681937_">
			<rect x="-0.001" y="6.33" class="st5" width="15.277" height="0.5"/>
		</g>
		<g id="Line_34_00000085243436978690281850000004507879691607652006_">
			<rect x="-0.001" y="12.911" class="st5" width="15.277" height="0.5"/>
		</g>
	</g>
	<g class="st6">
		<path class="st7" d="M238.413,187.09l-1.172,7.796c1.725-0.782,3.081-2.737,3.081-5.128c0-3.542-3.058-5.727-6.83-5.727
			c-4.53,0-8.577,3.196-8.577,8.417c0,5.013,3.771,7.542,8.531,7.542c1.081,0,2.483-0.115,3.702-0.529l-0.368,2.553
			c-1.242,0.322-2.438,0.483-3.748,0.483c-6.163,0-11.061-3.381-11.061-9.75c0-6.761,5.22-11.313,11.705-11.313
			c5.128,0,9.198,3.173,9.198,7.887c0,4.162-2.875,7.888-7.312,7.888h-1.15l-0.023-1.541c-0.828,1.196-1.978,1.816-3.173,1.816
			c-2.23,0-4.047-1.839-4.047-4.782c0-3.196,2.208-5.864,4.944-5.864c1.379,0,2.598,0.644,3.173,1.886l0.575-1.633H238.413z
			 M234.78,191.804c0-1.402-0.736-2.322-1.955-2.322c-1.495,0-2.53,1.448-2.53,3.081c0,1.495,0.851,2.276,1.978,2.276
			C233.791,194.839,234.78,193.415,234.78,191.804z"/>
	</g>
	<g id="Group_1428" transform="translate(315.105 191.64) rotate(-90)">
		
			<ellipse id="Ellipse_179" transform="matrix(-2.535182e-06 -1 1 -2.535182e-06 -18.999 25.9771)" class="st8" cx="3.489" cy="22.488" rx="3.489" ry="3.489"/>
		
			<ellipse id="Ellipse_180" transform="matrix(-2.535182e-06 -1 1 -2.535182e-06 -0.9989 43.9771)" class="st8" cx="21.489" cy="22.488" rx="3.489" ry="3.489"/>
		
			<ellipse id="Ellipse_181" transform="matrix(-2.535182e-06 -1 1 -2.535182e-06 18.0001 24.978)" class="st8" cx="21.489" cy="3.489" rx="3.489" ry="3.489"/>
	</g>
	<g id="Group_1429" transform="translate(321.543 206.312)">
		<path id="Path_1401" class="st9" d="M15.93,0l-3.531,4.5c-0.847,1.079-0.659,2.641,0.421,3.488c0,0,0,0,0,0l0,0
			c1.08,0.847,1.268,2.409,0.421,3.489l0,0l-2.436,3.1c-0.847,1.08-2.409,1.268-3.489,0.421l0,0l0,0
			c-1.08-0.847-2.642-0.659-3.489,0.421l0,0l-3.825,4.876c0,0,6.394,7.154,15.4-4.321S15.93,0,15.93,0z"/>
	</g>
	<g id="Group_1448" transform="translate(-73.226 22.796)">
		<g id="Line_66">
			<rect x="323.726" y="178.76" class="st8" width="38.627" height="0.5"/>
		</g>
		<path id="Path_1449" class="st8" d="M391.717,179.01l-27.972-14.806l5.521,14.806H391.717z"/>
		<path id="Path_1450" class="st10" d="M363.745,193.816l27.972-14.806h-22.452L363.745,193.816z"/>
	</g>
</g>
</svg>
