<?xml version="1.0" encoding="utf-8"?>
<!-- Generator: Adobe Illustrator 26.1.0, SVG Export Plug-In . SVG Version: 6.00 Build 0)  -->
<svg version="1.1" id="Layer_1" xmlns="http://www.w3.org/2000/svg" xmlns:xlink="http://www.w3.org/1999/xlink" x="0px" y="0px"
	 viewBox="0 0 77.3 77.3" style="enable-background:new 0 0 77.3 77.3;" xml:space="preserve">
<style type="text/css">
	.st0{fill:#0C161C;}
</style>
<g>
	<g>
		<path class="st0" d="M35.4,21.1c-0.6-1.2-1.4-2.1-2.5-2.7c-1-0.6-2.3-0.9-3.9-0.9h-5.3c-0.4,0-0.7,0.1-0.9,0.2
			c-0.1,0.1-0.2,0.4-0.2,0.8v16.4c0,0.4,0.1,0.7,0.2,0.8s0.4,0.2,0.9,0.2h5.9c2.8,0,4.7-1.2,5.7-3.6c0.2-0.5,0.4-1.1,0.5-1.7
			c0.1-0.6,0.1-1.3,0.1-2.1V25c0-1,0-1.8-0.1-2.3C35.8,22.1,35.6,21.6,35.4,21.1 M31.7,28.5c0,0.7,0,1.3-0.1,1.8s-0.2,0.9-0.5,1.1
			s-0.5,0.5-0.8,0.6c-0.4,0.1-0.8,0.2-1.3,0.2h-2.1V21.1H29c1,0,1.7,0.3,2.1,0.9c0.4,0.6,0.6,1.5,0.6,2.8
			C31.7,24.8,31.7,28.5,31.7,28.5z M35.1,55.8h-7.2l7.6-10.7c0.1-0.2,0.2-0.3,0.2-0.4s0.1-0.2,0.1-0.4v-2.1c0-0.4-0.1-0.7-0.2-0.8
			c-0.1-0.1-0.4-0.2-0.9-0.2H23.6c-0.4,0-0.7,0.1-0.8,0.2s-0.2,0.5-0.2,0.9v1.5c0,0.5,0.1,0.8,0.2,0.9c0.1,0.1,0.4,0.2,0.8,0.2h6.8
			l-7.5,10.7c-0.2,0.2-0.3,0.5-0.3,0.7v2.4c0,0.4,0.1,0.7,0.2,0.8s0.4,0.2,0.9,0.2H35c0.4,0,0.7-0.1,0.8-0.2s0.2-0.4,0.2-0.9v-1.5
			c0-0.5-0.1-0.8-0.2-0.9C35.7,55.9,35.5,55.8,35.1,55.8 M70.6,6.6h-64v28.3l3.7,3.7l-3.7,3.7v28.3h64V42.3l-3.7-3.7l3.7-3.7V6.6z
			 M62.1,39.8l4.4,4.4v22.4H10.6V44.2l4.4-4.4c0.7-0.7,0.7-1.7,0-2.4L10.6,33V10.6h56V33l-4.4,4.4C61.5,38.1,61.5,39.1,62.1,39.8
			 M53.6,41.3h-1.7c-0.4,0-0.7,0.1-0.9,0.2c-0.1,0.1-0.2,0.4-0.2,0.8V52l-5.1-9.7c-0.2-0.4-0.4-0.7-0.6-0.8c-0.2-0.1-0.5-0.2-1-0.2
			h-1.6c-0.4,0-0.7,0.1-0.9,0.2c-0.1,0.1-0.2,0.4-0.2,0.8v16.4c0,0.4,0.1,0.7,0.2,0.8c0.1,0.1,0.4,0.2,0.9,0.2h1.7
			c0.4,0,0.7-0.1,0.9-0.2c0.1-0.1,0.2-0.4,0.2-0.8V49l5.1,9.8c0.2,0.4,0.4,0.7,0.6,0.8c0.2,0.1,0.5,0.2,1,0.2h1.6
			c0.4,0,0.7-0.1,0.9-0.2c0.1-0.1,0.2-0.4,0.2-0.8V42.3c0-0.4-0.1-0.7-0.2-0.8C54.3,41.4,54.1,41.3,53.6,41.3 M56.3,34.7l-5.4-16.3
			c-0.1-0.4-0.3-0.6-0.4-0.7c-0.2-0.1-0.4-0.2-0.7-0.2h-3c-0.3,0-0.6,0.1-0.8,0.2c-0.2,0.1-0.3,0.4-0.4,0.7l-5.5,16.3
			C40,34.8,40,35,40,35.2c0,0.4,0.2,0.6,0.7,0.6h2.2c0.2,0,0.4,0,0.5,0s0.2-0.1,0.3-0.1c0.1-0.1,0.1-0.2,0.2-0.3
			c0.1-0.1,0.1-0.3,0.2-0.5l0.8-2.9H51l0.9,2.8c0.1,0.2,0.1,0.4,0.2,0.6c0.1,0.1,0.1,0.2,0.2,0.3c0.1,0.1,0.2,0.1,0.3,0.1
			s0.3,0,0.5,0h2.5c0.5,0,0.7-0.2,0.7-0.6c0-0.1,0-0.2,0-0.2S56.3,34.9,56.3,34.7 M46,28.7l2.1-6.9l2.1,6.9H46z"/>
	</g>
</g>
</svg>
