<svg id="Layer_1" data-name="Layer 1" xmlns="http://www.w3.org/2000/svg" xmlns:xlink="http://www.w3.org/1999/xlink" viewBox="0 0 159.277 157.252"><defs><style>.cls-1{fill:url(#linear-gradient);}.cls-2{isolation:isolate;opacity:0.7;fill:url(#linear-gradient-2);}.cls-3{fill:#00a9dc;}.cls-4{fill:#fff;}.cls-5{fill:#1da0cf;}.cls-6{fill:#307e71;}.cls-7{fill:#2a809a;}.cls-8{fill:#128822;}.cls-9{fill:#5fc975;}</style><linearGradient id="linear-gradient" x1="-877.577" y1="616.94" x2="-876.774" y2="618.03" gradientTransform="matrix(148.522, 0, 0, -148.522, 130341.236, 91801.799)" gradientUnits="userSpaceOnUse"><stop offset="0" stop-color="#1da7e1"/><stop offset="0.453" stop-color="#84d9c1"/><stop offset="1" stop-color="#cce7f9"/></linearGradient><linearGradient id="linear-gradient-2" x1="-875.322" y1="617.857" x2="-876.253" y2="616.901" gradientTransform="matrix(91.896, 0, 0, -130.142, 80553.791, 80440.19)" gradientUnits="userSpaceOnUse"><stop offset="0" stop-color="#fff" stop-opacity="0.702"/><stop offset="1" stop-color="#8fd3e6"/></linearGradient></defs><path id="Path_1211" data-name="Path 1211" class="cls-1" d="M74.261,0A74.261,74.261,0,1,1,0,74.261,74.261,74.261,0,0,1,74.261,0Z"/><path id="Path_1212-2" data-name="Path 1212-2" class="cls-2" d="M114.49,27.11H31.948a4.675,4.675,0,0,0-4.677,4.673V152.577a4.675,4.675,0,0,0,4.675,4.675H114.49a4.675,4.675,0,0,0,4.677-4.673V31.785a4.675,4.675,0,0,0-4.675-4.675Z"/><rect id="Rectangle_911" data-name="Rectangle 911" class="cls-3" x="40.172" y="41.411" width="66.771" height="102.939"/><rect id="Rectangle_912" data-name="Rectangle 912" class="cls-4" x="35.558" y="35.847" width="75.118" height="112.676"/><path id="Path_1213-3" data-name="Path 1213-3" class="cls-5" d="M76.425,47.311H99.653V70.538H76.425Z"/><path id="Path_1213-4" data-name="Path 1213-4" class="cls-5" d="M76.425,47.311H99.653V70.538H76.425Z"/><path id="Path_1214" data-name="Path 1214" class="cls-4" d="M84.954,63.564V54.278l8.772,4.643Z"/><g id="Group_1276" data-name="Group 1276"><g id="Line_18" data-name="Line 18"><rect class="cls-6" x="47.748" y="52.332" width="21.833" height="0.5"/></g><g id="Line_19" data-name="Line 19"><rect class="cls-6" x="47.748" y="58.671" width="21.833" height="0.5"/></g><g id="Line_20" data-name="Line 20"><rect class="cls-6" x="47.748" y="65.01" width="21.833" height="0.5"/></g></g><g id="Group_1277" data-name="Group 1277"><g id="Ellipse_32" data-name="Ellipse 32"><path class="cls-7" d="M74.261,101.964a9.131,9.131,0,1,1,9.131-9.131A9.141,9.141,0,0,1,74.261,101.964Zm0-17.262a8.131,8.131,0,1,0,8.131,8.131A8.14,8.14,0,0,0,74.261,84.7Z"/></g><g id="Group_97" data-name="Group 97"><g id="Line_21" data-name="Line 21"><rect class="cls-7" x="73.761" y="80.361" width="1" height="8.694"/></g><g id="Line_22" data-name="Line 22"><rect class="cls-7" x="73.761" y="96.086" width="1" height="8.694"/></g><g id="Line_23" data-name="Line 23"><rect class="cls-7" x="62.051" y="92.071" width="8.694" height="1"/></g><g id="Line_24" data-name="Line 24"><rect class="cls-7" x="77.777" y="92.071" width="8.694" height="1"/></g></g></g><g id="Line_53" data-name="Line 53"><rect class="cls-8" x="95.56" y="92.321" width="34.352" height="0.5"/></g><path id="Path_1215" data-name="Path 1215" class="cls-8" d="M159.277,92.571,131.305,77.765l5.521,14.806Z"/><path id="Path_1216" data-name="Path 1216" class="cls-9" d="M131.305,107.378l27.972-14.806H136.825Z"/><g id="Group_1278" data-name="Group 1278"><g id="Line_27" data-name="Line 27"><rect class="cls-6" x="49.329" y="124.24" width="49.865" height="0.5"/></g><g id="Line_28" data-name="Line 28"><rect class="cls-6" x="49.329" y="130.579" width="31.24" height="0.5"/></g></g></svg>