<svg id="Layer_1" data-name="Layer 1" xmlns="http://www.w3.org/2000/svg" xmlns:xlink="http://www.w3.org/1999/xlink" viewBox="0 0 159.277 157.252"><defs><style>.cls-1{fill:url(#linear-gradient);}.cls-2{isolation:isolate;opacity:0.7;fill:url(#linear-gradient-2);}.cls-3{fill:#008cb7;}.cls-4{fill:#fff;}.cls-5{fill:#128822;}.cls-6{fill:#5fc975;}.cls-7{fill:#307e71;}.cls-8{fill:#1da0cf;}</style><linearGradient id="linear-gradient" x1="-885.318" y1="616.976" x2="-884.515" y2="618.066" gradientTransform="matrix(148.522, 0, 0, -148.522, 131501.735, 91807.333)" gradientUnits="userSpaceOnUse"><stop offset="0" stop-color="#1da7e1"/><stop offset="0.453" stop-color="#84d9c1"/><stop offset="1" stop-color="#cce7f9"/></linearGradient><linearGradient id="linear-gradient-2" x1="-887.842" y1="617.897" x2="-888.773" y2="616.941" gradientTransform="matrix(91.799, 0, 0, -130.006, 81631.423, 80361.468)" gradientUnits="userSpaceOnUse"><stop offset="0" stop-color="#fff" stop-opacity="0.702"/><stop offset="1" stop-color="#8fd3e6"/></linearGradient></defs><path id="Path_1339" data-name="Path 1339" class="cls-1" d="M85.016.065A74.261,74.261,0,1,1,10.755,74.326,74.261,74.261,0,0,1,85.016.065Z"/><path id="Path_1340-2" data-name="Path 1340-2" class="cls-2" d="M127.659,27.181H45.2a4.669,4.669,0,0,0-4.672,4.668h0V152.517a4.669,4.669,0,0,0,4.67,4.669h82.457a4.669,4.669,0,0,0,4.672-4.668h0V31.85a4.669,4.669,0,0,0-4.67-4.669Z"/><rect id="Rectangle_973" data-name="Rectangle 973" class="cls-3" x="53.039" y="41.461" width="66.701" height="102.831"/><rect id="Rectangle_974" data-name="Rectangle 974" class="cls-4" x="48.913" y="35.902" width="75.039" height="112.558"/><g id="Line_57" data-name="Line 57"><rect class="cls-5" x="29.622" y="64.476" width="34.352" height="0.5"/></g><path id="Path_1341" data-name="Path 1341" class="cls-5" d="M.257,64.726,28.229,79.532,22.708,64.726Z"/><path id="Path_1342" data-name="Path 1342" class="cls-6" d="M28.229,49.921.257,64.727H22.709Z"/><g id="Group_99" data-name="Group 99"><g id="Line_27-2" data-name="Line 27-2"><rect class="cls-7" x="77.331" y="98.226" width="25.799" height="0.5"/></g><g id="Line_28-2" data-name="Line 28-2"><rect class="cls-7" x="67.09" y="102.77" width="20.483" height="0.5"/></g><g id="Line_28-3" data-name="Line 28-3"><rect class="cls-7" x="57.475" y="107.226" width="20.483" height="0.5"/></g></g><path id="Path_165" data-name="Path 165" class="cls-8" d="M99.642,56.446l4.234,8.579,9.468,1.376-6.851,6.678,1.617,9.43-8.468-4.452-8.468,4.452,1.617-9.43L85.94,66.4l9.468-1.376Z"/><g id="Line_29-2" data-name="Line 29-2"><path class="cls-7" d="M99.641,54.4a.75.75,0,0,1-.75-.75v-8.4a.75.75,0,0,1,1.5,0v8.4A.75.75,0,0,1,99.641,54.4Z"/></g><g id="Line_30-2" data-name="Line 30-2"><path class="cls-7" d="M108.685,55.569a.751.751,0,0,1-.53-1.281l5.936-5.936a.75.75,0,1,1,1.061,1.061l-5.937,5.936A.748.748,0,0,1,108.685,55.569Z"/></g><g id="Line_31" data-name="Line 31"><path class="cls-7" d="M91.525,55.569a.751.751,0,0,1-.531-.22l-5.935-5.936a.75.75,0,1,1,1.06-1.061l5.936,5.936a.751.751,0,0,1-.53,1.281Z"/></g><g id="Path_166" data-name="Path 166"><path class="cls-7" d="M92.387,139.587l-3.063-3.378H71.8V118.373h29.144v17.836H95.388ZM72.3,135.709H89.544l2.839,3.13,2.78-3.13h5.283V118.873H72.3Z"/></g><g id="Group_106" data-name="Group 106"><g id="Line_32" data-name="Line 32"><rect class="cls-7" x="76.506" y="122.38" width="10.933" height="1"/></g><g id="Line_33" data-name="Line 33"><rect class="cls-7" x="76.506" y="126.604" width="10.933" height="1"/></g><g id="Line_34" data-name="Line 34"><rect class="cls-7" x="76.506" y="130.828" width="10.933" height="1"/></g></g></svg>