<svg id="Layer_1" data-name="Layer 1" xmlns="http://www.w3.org/2000/svg" xmlns:xlink="http://www.w3.org/1999/xlink" viewBox="0 0 159.277 157.252"><defs><style>.cls-1{fill:url(#linear-gradient);}.cls-2,.cls-9{isolation:isolate;}.cls-2{opacity:0.7;fill:url(#linear-gradient-2);}.cls-3{fill:#008cb7;}.cls-4{fill:#fff;}.cls-5{fill:url(#linear-gradient-3);}.cls-6{fill:#58ad9f;}.cls-7{fill:#4cafd3;}.cls-8{fill:#128822;}.cls-9{fill:#5fc975;opacity:0.62;}</style><linearGradient id="linear-gradient" x1="-880.133" y1="616.976" x2="-879.33" y2="618.066" gradientTransform="matrix(148.522, 0, 0, -148.522, 130726.236, 91807.334)" gradientUnits="userSpaceOnUse"><stop offset="0" stop-color="#1da7e1"/><stop offset="0.453" stop-color="#84d9c1"/><stop offset="1" stop-color="#cce7f9"/></linearGradient><linearGradient id="linear-gradient-2" x1="-879.453" y1="617.897" x2="-880.384" y2="616.941" gradientTransform="matrix(91.799, 0, 0, -130.006, 80855.92, 80361.465)" gradientUnits="userSpaceOnUse"><stop offset="0" stop-color="#fff" stop-opacity="0.702"/><stop offset="1" stop-color="#8fd3e6"/></linearGradient><linearGradient id="linear-gradient-3" x1="-882.207" y1="609.281" x2="-882.207" y2="608.281" gradientTransform="matrix(21.353, 0, 0, -21.353, 18935.575, 13127.389)" gradientUnits="userSpaceOnUse"><stop offset="0" stop-color="#bee1ea"/><stop offset="1" stop-color="#ebf7fb"/></linearGradient></defs><g id="Group_1357" data-name="Group 1357"><g id="Group_1356" data-name="Group 1356"><g id="Group_1328" data-name="Group 1328"><path id="Path_1245" data-name="Path 1245" class="cls-1" d="M79.639.068A74.261,74.261,0,1,1,5.378,74.329,74.261,74.261,0,0,1,79.639.068Z"/><path id="Path_1246-3" data-name="Path 1246-3" class="cls-2" d="M122.277,27.178H39.822a4.67,4.67,0,0,0-4.672,4.668V152.514a4.67,4.67,0,0,0,4.67,4.67h82.457a4.669,4.669,0,0,0,4.672-4.668V31.848a4.67,4.67,0,0,0-4.67-4.67Z"/><rect id="Rectangle_945" data-name="Rectangle 945" class="cls-3" x="47.661" y="41.463" width="66.701" height="102.831"/><rect id="Rectangle_946" data-name="Rectangle 946" class="cls-4" x="43.535" y="35.904" width="75.039" height="112.558"/><rect id="Rectangle_947-2" data-name="Rectangle 947-2" class="cls-5" x="87.124" y="117.409" width="21.353" height="21.353" rx="1"/><g id="Rectangle_948" data-name="Rectangle 948"><path class="cls-6" d="M73.2,139.033H53.844a1.252,1.252,0,0,1-1.25-1.25V118.429a1.252,1.252,0,0,1,1.25-1.25H73.2a1.251,1.251,0,0,1,1.25,1.25v19.354A1.251,1.251,0,0,1,73.2,139.033ZM53.844,117.679a.752.752,0,0,0-.75.75v19.354a.752.752,0,0,0,.75.75H73.2a.751.751,0,0,0,.75-.75V118.429a.751.751,0,0,0-.75-.75Z"/></g><g id="Path_1247" data-name="Path 1247"><path class="cls-7" d="M103.708,135.265l-9.43-7.651a1.275,1.275,0,0,1,1.607-1.981l7.37,5.98,8.954-11.97a1.275,1.275,0,1,1,2.041,1.527Z"/></g><g id="Path_1248" data-name="Path 1248"><path class="cls-8" d="M70.6,85.5,54.973,63.435,18.046,80.079a.25.25,0,1,1-.2-.456l37.3-16.813L70.658,84.717c1.117-1.17,6.527-6.832,11.946-12.488,12.29-12.831,12.3-12.844,12.533-12.708a.251.251,0,0,1,.008.425c-.666.582-16.18,16.8-24.335,25.336Z"/></g><circle id="Ellipse_164" data-name="Ellipse 164" class="cls-8" cx="55.119" cy="63.309" r="3.489"/><circle id="Ellipse_165" data-name="Ellipse 165" class="cls-8" cx="70.709" cy="85.235" r="3.489"/><path id="Path_1249" data-name="Path 1249" class="cls-8" d="M114.841,40.043l-30.218,9.3L98.982,55.9Z"/><path id="Path_1250" data-name="Path 1250" class="cls-9" d="M105.541,70.26l9.3-30.217L98.982,55.9Z"/><circle id="Ellipse_166" data-name="Ellipse 166" class="cls-8" cx="17.944" cy="79.309" r="3.489"/></g></g></g></svg>