<svg id="Layer_1" data-name="Layer 1" xmlns="http://www.w3.org/2000/svg" xmlns:xlink="http://www.w3.org/1999/xlink" viewBox="0 0 148.522 157.121"><defs><style>.cls-1{fill:url(#linear-gradient);}.cls-2,.cls-6{isolation:isolate;}.cls-2{opacity:0.7;fill:url(#linear-gradient-2);}.cls-3{fill:#008cb7;}.cls-4{fill:#fff;}.cls-5{fill:#128822;}.cls-6{fill:#5fc975;opacity:0.62;}.cls-10,.cls-7,.cls-9{fill:none;stroke-miterlimit:10;}.cls-7{stroke:#3c9d49;stroke-width:0.499px;}.cls-8{fill:#1da0cf;}.cls-9{stroke:#368cad;stroke-width:2px;}.cls-10{stroke:#128822;stroke-width:0.49px;}</style><linearGradient id="linear-gradient" x1="-882.833" y1="616.976" x2="-882.03" y2="618.066" gradientTransform="matrix(148.522, 0, 0, -148.522, 131127.236, 91807.333)" gradientUnits="userSpaceOnUse"><stop offset="0" stop-color="#1da7e1"/><stop offset="0.453" stop-color="#84d9c1"/><stop offset="1" stop-color="#cce7f9"/></linearGradient><linearGradient id="linear-gradient-2" x1="-883.822" y1="617.897" x2="-884.753" y2="616.941" gradientTransform="matrix(91.799, 0, 0, -130.006, 81256.923, 80361.468)" gradientUnits="userSpaceOnUse"><stop offset="0" stop-color="#fff" stop-opacity="0.702"/><stop offset="1" stop-color="#8fd3e6"/></linearGradient></defs><path id="Path_1245-2" data-name="Path 1245-2" class="cls-1" d="M79.639.065A74.261,74.261,0,1,1,5.378,74.326,74.261,74.261,0,0,1,79.639.065Z" transform="translate(-5.378 -0.065)"/><path id="Path_1246-4" data-name="Path 1246-4" class="cls-2" d="M122.281,27.181H39.826a4.668,4.668,0,0,0-4.672,4.668h0V152.517a4.669,4.669,0,0,0,4.67,4.669h82.457a4.67,4.67,0,0,0,4.672-4.668h0V31.85a4.669,4.669,0,0,0-4.67-4.669Z" transform="translate(-5.378 -0.065)"/><rect id="Rectangle_945-2" data-name="Rectangle 945-2" class="cls-3" x="42.284" y="41.396" width="66.701" height="102.831"/><rect id="Rectangle_946-2" data-name="Rectangle 946-2" class="cls-4" x="38.158" y="35.837" width="75.039" height="112.558"/><path id="Path_1249-2" data-name="Path 1249-2" class="cls-5" d="M96.962,45.948,82.171,73.891l14.791-5.515Z" transform="translate(-5.378 -0.065)"/><path id="Path_1250-2" data-name="Path 1250-2" class="cls-6" d="M111.752,73.891,96.961,45.948V68.376Z" transform="translate(-5.378 -0.065)"/><g id="Group_96-2" data-name="Group 96-2"><g id="Group_95-2" data-name="Group 95-2"><line id="Line_19-2" data-name="Line 19-2" class="cls-7" x1="89.289" y1="103.308" x2="89.289" y2="77.988"/><line id="Line_20-2" data-name="Line 20-2" class="cls-7" x1="93.88" y1="103.308" x2="93.88" y2="77.988"/></g></g><path id="Path_163" data-name="Path 163" class="cls-8" d="M73.87,108.3v-5.409H69.849a8.572,8.572,0,0,0-.417-1l2.845-2.845-3.825-3.826-2.845,2.845a8.24,8.24,0,0,0-1-.417V93.623H59.2v4.021a8.24,8.24,0,0,0-1,.417l-2.845-2.845-3.826,3.826,2.845,2.845a8.109,8.109,0,0,0-.417,1H49.934V108.3h4.021a8.24,8.24,0,0,0,.417,1l-2.845,2.844,3.826,3.826,2.845-2.845a8.24,8.24,0,0,0,1,.417v4.021h5.409v-4.021a8.24,8.24,0,0,0,1-.417l2.845,2.845,3.825-3.826L69.432,109.3a8.645,8.645,0,0,0,.417-1Zm-11.779,2.119a4.826,4.826,0,1,1,4.825-4.826h0a4.824,4.824,0,0,1-4.825,4.82Z" transform="translate(-5.378 -0.065)"/><g id="Group_103" data-name="Group 103"><line id="Line_29" data-name="Line 29" class="cls-9" x1="56.863" y1="60.805" x2="56.863" y2="45.736"/><line id="Line_30" data-name="Line 30" class="cls-9" x1="49.329" y1="53.27" x2="64.398" y2="53.27"/></g><g id="Group_96" data-name="Group 96"><g id="Group_95" data-name="Group 95"><line id="Line_18-2" data-name="Line 18-2" class="cls-10" x1="76.793" y1="124.317" x2="106.275" y2="124.317"/><line id="Line_19-2-2" data-name="Line 19-2-2" class="cls-10" x1="76.793" y1="128.906" x2="106.275" y2="128.906"/><line id="Line_20-2-2" data-name="Line 20-2-2" class="cls-10" x1="76.793" y1="133.497" x2="106.275" y2="133.497"/></g></g></svg>