<?xml version="1.0" encoding="utf-8"?>
<!-- Generator: Adobe Illustrator 26.0.1, SVG Export Plug-In . SVG Version: 6.00 Build 0)  -->
<svg version="1.1" id="Layer_1" xmlns="http://www.w3.org/2000/svg" xmlns:xlink="http://www.w3.org/1999/xlink" x="0px" y="0px"
	 viewBox="0 0 190.8 37.5" style="enable-background:new 0 0 190.8 37.5;" xml:space="preserve">
<style type="text/css">
	.st0{fill:#304144;}
	.st1{fill:#808D8E;}
	.st2{fill:url(#SVGID_1_);}
	.st3{opacity:0.8;enable-background:new    ;}
	.st4{opacity:0.28;fill:url(#SVGID_00000169529743817237764460000008874551639776213175_);enable-background:new    ;}
	.st5{opacity:5.000000e-02;enable-background:new    ;}
	.st6{opacity:0.2;fill:url(#SVGID_00000070829768049683560010000003756653625592521635_);enable-background:new    ;}
	.st7{fill:url(#SVGID_00000064334751466135467860000017066378526476300442_);}
</style>
<path class="st0" d="M70.8,8.7c0.1,0.7-0.2,1.4-0.6,1.9c-0.7,0.5-1.5,0.7-2.3,0.6c-0.8,0.1-1.6-0.1-2.3-0.6
	c-0.5-0.5-0.7-1.2-0.6-1.9c-0.1-0.7,0.2-1.3,0.6-1.9c0.7-0.5,1.5-0.7,2.3-0.6c0.8-0.1,1.6,0.1,2.3,0.6C70.7,7.4,70.9,8,70.8,8.7z
	 M65.3,13.4h5.1v16.8h-5.1V13.4z"/>
<path class="st0" d="M77.2,13.3L80.6,25L84,13.3h5.3l-5.8,16.9h-6l-5.9-16.9H77.2z"/>
<path class="st0" d="M94.7,23.5c0,0.5,0.1,0.9,0.2,1.3c0.1,0.3,0.3,0.6,0.5,0.8c0.3,0.2,0.6,0.4,1,0.4c0.5,0.1,1,0.1,1.6,0.1h2.9
	h3.4l-0.7,4c-1.1,0-2.1,0.1-3,0.1h-3c-1.3,0-2.6-0.1-3.8-0.5c-0.9-0.3-1.7-0.8-2.4-1.4c-0.6-0.7-1.1-1.5-1.3-2.4
	c-0.3-1.1-0.4-2.2-0.4-3.4v-1.8c0-1.2,0.1-2.4,0.4-3.5c0.2-0.9,0.7-1.8,1.4-2.5c0.7-0.7,1.5-1.2,2.5-1.5c1.2-0.4,2.5-0.5,3.8-0.5
	c2.7,0,4.6,0.6,5.8,1.7c1.2,1.3,1.8,3,1.7,4.7v0.7c0,0.6,0,1.2-0.1,1.7c-0.1,0.4-0.2,0.8-0.5,1.1c-0.2,0.3-0.5,0.5-0.9,0.6
	c-0.4,0.1-0.9,0.2-1.4,0.2H94.7z M97.5,16.6c-0.5,0-0.9,0-1.4,0.1c-0.3,0.1-0.6,0.3-0.8,0.5c-0.2,0.3-0.4,0.6-0.4,1
	c-0.1,0.6-0.1,1.1-0.1,1.7h5.6c0-0.6,0-1.1-0.1-1.7c-0.1-0.4-0.2-0.7-0.4-1c-0.2-0.3-0.5-0.4-0.9-0.5C98.4,16.6,98,16.6,97.5,16.6
	L97.5,16.6z"/>
<path class="st0" d="M118.3,17.5c0.7,0.3,1.3,0.7,1.8,1.3c0.5,0.5,0.8,1.2,1,1.9c0.2,0.8,0.3,1.7,0.3,2.5v0.5c0,1-0.1,2-0.4,3
	c-0.3,0.8-0.8,1.5-1.5,2.1c-0.8,0.6-1.8,1-2.8,1.2c-1.4,0.3-2.9,0.4-4.3,0.4h-3.3h-2.8L107,26c1.7,0,1.9,0.1,3.1,0.1h2.3
	c0.6,0,1.2,0,1.8-0.1c0.4-0.1,0.8-0.2,1.1-0.4c0.3-0.2,0.5-0.4,0.6-0.7c0.1-0.4,0.2-0.7,0.1-1.1c0-0.3,0-0.7-0.1-1
	c0-0.3-0.2-0.5-0.4-0.7c-0.2-0.2-0.5-0.4-0.7-0.5c-0.3-0.1-4.6-1.4-5.4-1.7c-0.7-0.3-1.4-0.7-1.9-1.3c-0.5-0.5-0.8-1.2-0.9-1.8
	c-0.2-0.8-0.3-1.6-0.3-2.5v-0.5c0-0.9,0.1-1.9,0.4-2.7c0.3-0.8,0.8-1.5,1.5-2c0.8-0.6,1.7-1,2.7-1.3c1.3-0.3,2.7-0.5,4-0.4h1.2h2.1
	c0.7,0,1.6,0,2.5,0l-0.8,4.3c-1.7,0-3.1-0.1-4.3-0.1h-0.8c-0.5,0-1.1,0-1.6,0.1c-0.4,0-0.7,0.2-1,0.3c-0.2,0.2-0.4,0.4-0.5,0.7
	c-0.1,0.3-0.2,0.7-0.1,1c0,0.3,0,0.6,0.1,0.9c0,0.2,0.2,0.5,0.3,0.6c0.2,0.2,0.4,0.3,0.7,0.4C112.9,15.8,117.5,17.1,118.3,17.5z"/>
<path class="st0" d="M131.3,13.3h2c0.8,0,1.8,0,3,0.1l-0.8,4.1h-1h-0.9h-2.1c-0.6,0-1.1,0-1.6,0.1c-0.4,0.1-0.7,0.2-1,0.5
	c-0.3,0.3-0.4,0.7-0.5,1.1c-0.1,0.6-0.2,1.2-0.1,1.9v1.7c0,0.6,0,1.3,0.1,1.9c0.1,0.4,0.2,0.8,0.5,1.1c0.3,0.3,0.6,0.4,1,0.5
	c0.5,0.1,1.1,0.1,1.6,0.1h2.4c0.7,0,1.5,0,2.4-0.1l-0.8,4h-2.4h-1.8c-1.3,0-2.7-0.1-4-0.4c-1-0.2-1.8-0.7-2.6-1.3
	c-0.7-0.6-1.2-1.5-1.4-2.3c-0.3-1.2-0.4-2.4-0.4-3.6v-1.7c0-1.2,0.1-2.4,0.4-3.5c0.3-0.9,0.7-1.7,1.4-2.4c0.8-0.6,1.7-1.1,2.6-1.3
	C128.7,13.4,130,13.2,131.3,13.3z"/>
<path class="st0" d="M145.6,12.8c1.3,0,2.6,0.1,3.8,0.4c1,0.2,1.8,0.7,2.6,1.3c0.7,0.7,1.2,1.5,1.4,2.5c0.3,1.3,0.5,2.6,0.4,3.9v1.8
	c0,1.3-0.1,2.6-0.4,3.8c-0.2,0.9-0.7,1.8-1.4,2.5c-0.7,0.7-1.6,1.1-2.6,1.3c-2.5,0.5-5.1,0.5-7.7,0c-1-0.2-1.9-0.7-2.6-1.3
	c-0.7-0.7-1.2-1.5-1.4-2.5c-0.3-1.3-0.5-2.5-0.5-3.8v-1.8c0-1.3,0.1-2.6,0.5-3.9c0.2-0.9,0.8-1.8,1.4-2.5c0.7-0.7,1.6-1.1,2.6-1.3
	C143,12.9,144.3,12.8,145.6,12.8z M148.7,20.7c0-0.7,0-1.3-0.1-2c-0.1-0.4-0.2-0.8-0.5-1.2c-0.3-0.3-0.6-0.5-0.9-0.6
	c-1-0.2-2.1-0.2-3.1,0c-0.4,0.1-0.7,0.3-0.9,0.6c-0.3,0.3-0.4,0.7-0.5,1.2c-0.1,0.7-0.2,1.3-0.1,2v2.1c0,0.7,0,1.3,0.1,2
	c0.1,0.4,0.2,0.8,0.5,1.2c0.3,0.3,0.6,0.5,0.9,0.6c1,0.2,2.1,0.2,3.1,0c0.4-0.1,0.7-0.3,0.9-0.6c0.3-0.3,0.4-0.7,0.5-1.2
	c0.1-0.7,0.1-1.3,0.1-2V20.7z"/>
<path class="st0" d="M160.7,30.2h-5.1V19.6c0-1,0.1-2,0.4-3c0.3-0.8,0.7-1.5,1.4-2c0.7-0.5,1.5-0.8,2.3-1c1-0.2,2.1-0.3,3.2-0.3h1.8
	c0.6,0,1.3,0,2.1,0.1l-0.8,4.1c-0.2,0-0.6,0-1.1,0h-1.5c-0.5,0-1,0-1.4,0.2c-0.3,0.1-0.6,0.2-0.8,0.5c-0.2,0.2-0.3,0.5-0.4,0.8
	c-0.1,0.4-0.1,0.8-0.1,1.2L160.7,30.2z"/>
<path class="st0" d="M172.1,23.5c0,0.5,0.1,0.9,0.2,1.3c0.1,0.3,0.3,0.6,0.5,0.8c0.3,0.2,0.6,0.4,1,0.4c0.5,0.1,1,0.1,1.6,0.1h2.9
	h3.4l-0.7,4c-1.1,0-2.1,0.1-3,0.1h-3c-1.3,0-2.6-0.1-3.8-0.5c-0.9-0.3-1.7-0.8-2.4-1.4c-0.6-0.7-1.1-1.5-1.3-2.4
	c-0.3-1.1-0.4-2.2-0.4-3.4v-1.8c0-1.2,0.1-2.4,0.4-3.5c0.2-0.9,0.7-1.8,1.4-2.5c0.7-0.7,1.5-1.2,2.5-1.5c1.2-0.4,2.5-0.5,3.8-0.5
	c2.7,0,4.6,0.6,5.8,1.7c1.2,1.3,1.8,3,1.7,4.7v0.7c0,0.6,0,1.2-0.1,1.7c-0.1,0.4-0.2,0.8-0.5,1.1c-0.2,0.3-0.5,0.5-0.9,0.6
	c-0.4,0.1-0.9,0.2-1.4,0.2H172.1z M174.9,16.6c-0.5,0-0.9,0-1.4,0.1c-0.3,0.1-0.6,0.3-0.8,0.5c-0.2,0.3-0.4,0.6-0.4,1
	c-0.1,0.6-0.1,1.1-0.1,1.7h5.6c0-0.6,0-1.1-0.1-1.7c-0.1-0.4-0.2-0.7-0.4-1c-0.2-0.3-0.5-0.4-0.9-0.5
	C175.8,16.6,175.4,16.6,174.9,16.6L174.9,16.6z"/>
<path class="st0" d="M55.5,23.1c0,0.4,0,0.8,0.1,1.2c0,0.3,0.2,0.6,0.4,0.9c0.2,0.2,0.5,0.4,0.8,0.5c0.5,0.1,0.9,0.2,1.4,0.2
	c0.5,0,5.4,0.1,5.7,0l-0.7,4.2c-0.8,0-3,0.1-3.6,0.1h-1.8c-1.1,0-2.1-0.1-3.2-0.3c-0.8-0.2-1.6-0.5-2.3-1c-0.6-0.5-1.1-1.2-1.4-2
	c-0.3-1-0.5-2-0.4-3V7.2h5.1V23.1z"/>
<polygon class="st1" points="37.5,0 0,0 0,37.5 37.5,37.5 37.5,37.5 "/>
<path class="st0" d="M12.3,23.1c0,0.4,0,0.8,0.1,1.2c0,0.3,0.2,0.6,0.4,0.8c0.2,0.2,0.5,0.4,0.8,0.5c0.5,0.1,0.9,0.2,1.4,0.2
	c0.5,0,2.5,0,2.7,0l-0.8,4.3c0,0-0.4,0-1,0h-1.4c-1.1,0-2.1-0.1-3.2-0.3c-0.8-0.2-1.6-0.5-2.3-1c-0.6-0.5-1.1-1.2-1.4-2
	c-0.3-1-0.5-2-0.5-3V7.2h5.1L12.3,23.1z"/>
<path class="st0" d="M30.4,22.6c0-0.3,0-0.7-0.1-1c0-0.3-0.1-0.7-0.2-1c-0.1-0.3-0.2-0.6-0.3-0.9c-0.1-0.3-0.2-0.5-0.4-0.8l-0.1-0.1
	l0,0c-0.1-0.2-0.2-0.3-0.4-0.4c-0.1-0.1-0.3-0.3-0.4-0.4c-0.2-0.1-0.4-0.2-0.5-0.3l-0.6-0.3l-1.5-0.5l-0.4-0.1l-0.4-0.1l-0.4-0.1
	l-0.3-0.1l-0.2-0.1h-0.1c-0.2-0.1-0.4-0.2-0.6-0.3c-0.2-0.1-0.3-0.3-0.4-0.6c-0.1-0.2-0.1-0.5-0.1-0.7c0-0.2,0-0.5,0-0.7l0,0v-0.1
	c0-0.4,0-0.7,0.1-1.1c0.1-0.3,0.3-0.5,0.5-0.7c0.3-0.2,0.7-0.3,1.1-0.4c0.6-0.1,1.2-0.1,1.8-0.1c1,0,0.9,0,2.6,0.1l0.8-4.3
	c-0.9,0-1.3-0.1-1.8-0.1h-1.5c-1.4,0-2.9,0.1-4.3,0.4c-1,0.2-2,0.6-2.8,1.2c-0.7,0.5-1.2,1.2-1.5,2c-0.3,1-0.5,2-0.5,3v1.1
	c0,0.3,0,0.7,0.1,1c0,0.3,0.1,0.7,0.2,1c0.1,0.3,0.2,0.6,0.3,0.9c0.1,0.3,0.2,0.5,0.4,0.8l0.1,0.1l0,0c0.1,0.2,0.2,0.3,0.3,0.4
	c0.1,0.1,0.3,0.3,0.5,0.4c0.2,0.1,0.3,0.2,0.5,0.3l0.6,0.3l1.5,0.5l0.4,0.1l0.4,0.1l0.4,0.1l0.3,0.1l0.2,0.1h0.1
	c0.2,0.1,0.4,0.2,0.6,0.3c0.2,0.1,0.3,0.3,0.4,0.6c0.1,0.2,0.1,0.5,0.1,0.7c0,0.2,0,0.5,0,0.7l0,0v0.1c0,0.4,0,0.8-0.2,1.1
	c-0.1,0.3-0.3,0.5-0.5,0.7c-0.3,0.2-0.7,0.3-1.1,0.4c-0.6,0.1-1.2,0.1-1.8,0.1c-1,0-0.9,0-2.6-0.1l-0.8,4.3c0.9,0.1,1.3,0.1,1.8,0.1
	h1.5c1.4,0,2.9-0.1,4.3-0.4c1-0.2,2-0.6,2.8-1.2c0.7-0.5,1.2-1.2,1.6-2.1c0.3-1,0.5-2,0.4-3L30.4,22.6L30.4,22.6z"/>
<radialGradient id="SVGID_1_" cx="35.14" cy="7.59" r="13.4" gradientTransform="matrix(1 0 0 -1 0 39.44)" gradientUnits="userSpaceOnUse">
	<stop  offset="0" style="stop-color:#FFFFFF"/>
	<stop  offset="0.33" style="stop-color:#FDFDFD"/>
	<stop  offset="0.47" style="stop-color:#F6F6F6"/>
	<stop  offset="0.57" style="stop-color:#EAEAEA"/>
	<stop  offset="0.65" style="stop-color:#D8D8D8"/>
	<stop  offset="0.72" style="stop-color:#C1C1C1"/>
	<stop  offset="0.79" style="stop-color:#A5A5A5"/>
	<stop  offset="0.85" style="stop-color:#838383"/>
	<stop  offset="0.9" style="stop-color:#5C5C5C"/>
	<stop  offset="0.95" style="stop-color:#323232"/>
	<stop  offset="1" style="stop-color:#020202"/>
	<stop  offset="1" style="stop-color:#000000"/>
</radialGradient>
<path class="st2" d="M37.5,37.5V24.2c-6.1-1.2-12,2.7-13.3,8.8c-0.3,1.5-0.3,3.1,0,4.6H37.5z"/>
<path class="st3" d="M32.9,28.1H33c1.4-0.5,2.8-0.9,4.3-1h0.1v-2.4l0,0c-1.3-0.4-2.8-0.5-4.2-0.4c-1.2,0.3-2.2,1-2.9,2v0.1
	C31.3,26.9,32.1,27.5,32.9,28.1z"/>
<path class="st3" d="M25.4,33c0-0.7,0.2-1.5,0.3-2.2c0.1-0.7,0.4-1.3,0.8-1.8l-0.1-0.1l0,0c-0.2,0-0.4,0.1-0.6,0.2
	c-0.5,0.7-0.9,1.6-1.2,2.4c-0.4,1.2-0.6,2.4-0.6,3.6c0.3-0.7,0.8-1.4,1.4-1.9L25.4,33z"/>
<path class="st3" d="M28.5,37.5h6.1c0.2-0.5,0.4-1.1,0.7-1.8v-0.1c-1.2-1-2.3-2-3.4-3.1h-0.1c-1.3,0.6-2.6,1.4-3.7,2.4
	c0,0-0.1,0.1-0.1,0.1C28.1,35.8,28.3,36.7,28.5,37.5z"/>
<linearGradient id="SVGID_00000029016195682144741090000013832404816724318377_" gradientUnits="userSpaceOnUse" x1="-3100.3323" y1="-6.2287" x2="-3099.6824" y2="-3.6187" gradientTransform="matrix(-0.94 -0.33 0.33 -0.94 -2878.4021 -1001.1529)">
	<stop  offset="0" style="stop-color:#FFFFFF"/>
	<stop  offset="1.000000e-02" style="stop-color:#FAFAFA"/>
	<stop  offset="0.23" style="stop-color:#B0B0B0"/>
	<stop  offset="0.44" style="stop-color:#717171"/>
	<stop  offset="0.62" style="stop-color:#404040"/>
	<stop  offset="0.78" style="stop-color:#1D1D1D"/>
	<stop  offset="0.91" style="stop-color:#080808"/>
	<stop  offset="1" style="stop-color:#000000"/>
</linearGradient>
<path style="opacity:0.28;fill:url(#SVGID_00000029016195682144741090000013832404816724318377_);enable-background:new    ;" d="
	M37.3,24.9c0.1,0.7,0,1.3-0.1,2c-1.4,0.1-2.8,0.5-4.1,1c-0.8-0.6-1.6-1.2-2.4-1.6c0.8,0.5,1.7,0.9,2.7,1.1c0.9-0.2,2-0.5,3.5-0.7
	C37.2,26.6,37.3,24.9,37.3,24.9z"/>
<path class="st5" d="M35.4,37.5c0.3-0.7,0.7-1.2,1-1.3s0.7-0.2,1.1-0.3v-0.3c-1,0.2-1.7,0.4-1.7,0.4c-0.3,0.5-0.5,1-0.7,1.5H35.4z"
	/>
<path class="st5" d="M31.4,32.3c-1.2,0.6-2.4,1.4-3.5,2.3c-0.9-0.4-1.7-1-2.4-1.7c0-1.3,0.3-2.5,0.9-3.7c0,0-0.9,2.7-0.5,3.5
	c0.3,0.5,1.5,1.4,2,1.2C30.3,32.7,31.4,32.3,31.4,32.3z"/>
<path class="st5" d="M35.6,35.3l1.9-0.4v-0.1c-0.5,0.1-1.1,0.2-1.6,0.2c-0.7-0.1-2.9-2.4-3.1-2.8c0-1.2,0.2-2.3,0.6-3.4
	c0.3-0.5,3.9-1.4,3.9-1.4c-1.4,0.3-2.8,0.6-4.1,1.1c-0.5,1.2-0.8,2.6-0.9,3.9C33.2,33.5,34.3,34.5,35.6,35.3z"/>
<path class="st0" d="M25.4,33.2c0.8,0.7,1.7,1.3,2.6,1.8c0.1,0.9,0.3,1.7,0.5,2.5h6.1c0.2-0.5,0.4-1.1,0.7-1.8
	c0.8-0.1,1.5-0.3,2.1-0.5v-0.1c-0.7,0.2-1.4,0.3-2.2,0.5c-1.2-1-2.3-2-3.4-3.1c0.2-1.5,0.6-2.9,1.1-4.3c1.4-0.5,2.8-0.9,4.3-1h0.1
	v-2.4l0,0c-1.3-0.4-2.8-0.5-4.2-0.4c-1.2,0.3-2.2,1-2.9,2c-1.5,0.6-2.8,1.5-4,2.6l0,0c-0.2,0-0.4,0.1-0.6,0.2
	c-0.4,0.6-0.7,1.1-0.9,1.7l0,0c0,0,0,0.1,0,0.1l0,0c0,0,0,0.1,0,0.1l0,0c0,0,0,0.1,0,0.1l0,0c0,0,0,0.1,0,0.1l0,0
	c0,0.1,0,0.1-0.1,0.2l0,0l-0.1,0.2l0,0l-0.1,0.2l0,0l-0.1,0.2l0,0c0,0.1,0,0.1,0,0.2l0,0c0,0.1,0,0.2,0,0.2l0,0c0,0.1,0,0.1,0,0.2
	l0,0c-0.1,0.7-0.2,1.3-0.2,2C24.6,34.2,24.9,33.6,25.4,33.2z M25.8,30.8c0.1-0.7,0.4-1.3,0.8-1.8l0.1-0.1l0,0l0,0
	c1.1-1,2.4-1.8,3.8-2.4c0.9,0.5,1.7,1,2.5,1.6c-0.5,1.4-0.9,2.8-1.1,4.3c-1.3,0.6-2.6,1.4-3.7,2.4c-0.9-0.5-1.8-1.1-2.7-1.8
	C25.5,32.3,25.6,31.5,25.8,30.8z"/>
<linearGradient id="SVGID_00000151545758440269341020000000055460201363243682_" gradientUnits="userSpaceOnUse" x1="22.399" y1="8.3293" x2="27.819" y2="0.3993" gradientTransform="matrix(1 0 0 -1 0 39.44)">
	<stop  offset="0" style="stop-color:#FFFFFF"/>
	<stop  offset="0.17" style="stop-color:#FDFDFD"/>
	<stop  offset="0.28" style="stop-color:#F4F4F4"/>
	<stop  offset="0.36" style="stop-color:#E6E6E6"/>
	<stop  offset="0.43" style="stop-color:#D2D2D2"/>
	<stop  offset="0.5" style="stop-color:#B8B8B8"/>
	<stop  offset="0.56" style="stop-color:#989898"/>
	<stop  offset="0.62" style="stop-color:#717171"/>
	<stop  offset="0.68" style="stop-color:#454545"/>
	<stop  offset="0.73" style="stop-color:#141414"/>
	<stop  offset="0.75" style="stop-color:#000000"/>
</linearGradient>
<path style="opacity:0.2;fill:url(#SVGID_00000151545758440269341020000000055460201363243682_);enable-background:new    ;" d="
	M28.1,37.5c-0.2-0.7-0.3-1.5-0.4-2.2c-0.9-0.4-1.7-1-2.4-1.8c-0.5,0.6-1,1.3-1.3,2c0,0.7,0.1,1.3,0.2,2H28.1z"/>
<linearGradient id="SVGID_00000054964627024581853150000005098117677798643589_" gradientUnits="userSpaceOnUse" x1="33.5914" y1="12.4914" x2="39.5714" y2="6.5214" gradientTransform="matrix(1 0 0 -1 0 39.44)">
	<stop  offset="0" style="stop-color:#FFFFFF;stop-opacity:0.4"/>
	<stop  offset="1" style="stop-color:#FFFFFF;stop-opacity:0"/>
</linearGradient>
<path style="fill:url(#SVGID_00000054964627024581853150000005098117677798643589_);" d="M37.5,35V24.8c-2.8,0.2-5,2.6-4.8,5.4
	C32.9,32.8,34.9,34.9,37.5,35z"/>
<path class="st0" d="M186.8,12.8l-0.1,0.7h-1.1v2.9h-0.8v-2.9h-1.2l0.1-0.7L186.8,12.8z"/>
<path class="st0" d="M188.7,15.5l-0.7-1.3v2.4h-0.8v-3.6h0.9l0.9,1.9l0.9-1.8h0.9v3.6H190v-2.4l-0.7,1.4H188.7z"/>
</svg>
