<?xml version="1.0" encoding="utf-8"?>
<!-- Generator: Adobe Illustrator 24.1.3, SVG Export Plug-In . SVG Version: 6.00 Build 0)  -->
<svg version="1.1" id="Layer_1" xmlns="http://www.w3.org/2000/svg" xmlns:xlink="http://www.w3.org/1999/xlink" x="0px" y="0px" width="100%" height="100%"
	 viewBox="0 0 907.9 137.7" style="enable-background:new 0 0 907.9 137.7;" xml:space="preserve">
<style type="text/css">
	.st0{clip-path:url(#SVGID_2_);}
	.st1{fill:url(#SVGID_3_);}
	.st2{fill:url(#SVGID_4_);}
	.st3{fill:url(#SVGID_5_);}
	.st4{fill:#FFFFFF;}
	.st5{fill:url(#SVGID_6_);}
	.st6{fill:#00080A;}
	
</style>
<g id="Artwork_3_1_">
	<g class="logoLs">
		<defs>
			<path id="SVGID_1_" d="M137.7,43.6c0-1.7,0-3.3,0-5c0-1.4,0-2.8-0.1-4.2c0-3.1-0.3-6.1-0.8-9.2c-0.5-3-1.5-6-2.9-8.7
				c-2.8-5.5-7.3-10-12.8-12.8c-2.7-1.4-5.7-2.4-8.7-2.9c-3-0.5-6.1-0.8-9.2-0.8c-1.4,0-2.8-0.1-4.2-0.1c-1.7,0-3.3,0-5,0H43.6
				c-1.7,0-3.3,0-5,0c-1.4,0-2.8,0-4.2,0.1c-3.1,0-6.1,0.3-9.2,0.8c-3,0.5-6,1.5-8.7,2.9C11,6.6,6.6,11,3.7,16.5
				c-1.4,2.7-2.4,5.7-2.9,8.7c-0.5,3-0.8,6.1-0.8,9.2C0,35.8,0,37.2,0,38.6c0,1.7,0,3.3,0,5v50.5c0,1.7,0,3.3,0,5
				c0,1.4,0,2.8,0.1,4.2c0,3.1,0.3,6.1,0.8,9.2c0.5,3,1.5,6,2.9,8.7c2.8,5.5,7.3,10,12.8,12.8c2.7,1.4,5.7,2.4,8.7,2.9
				c3,0.5,6.1,0.8,9.2,0.8c1.4,0,2.8,0.1,4.2,0.1c1.7,0,3.3,0,5,0h50.5c1.7,0,3.3,0,5,0c1.4,0,2.8,0,4.2-0.1c3.1,0,6.1-0.3,9.2-0.8
				c3-0.5,6-1.5,8.7-2.9c5.5-2.8,10-7.3,12.8-12.8c1.4-2.7,2.4-5.7,2.9-8.7c0.5-3,0.8-6.1,0.8-9.2c0-1.4,0.1-2.8,0.1-4.2
				c0-1.7,0-3.3,0-5L137.7,43.6L137.7,43.6z"/>
		</defs>
		<clipPath id="SVGID_2_">
			<use xlink:href="#SVGID_1_"  style="overflow:visible;"/>
		</clipPath>
		<g class="st0">
			
				<linearGradient id="SVGID_3_" gradientUnits="userSpaceOnUse" x1="-8.127266e-06" y1="137.7083" x2="137.7066" y2="1.713575e-03">
				<stop  offset="1.241987e-03" style="stop-color:#FFAF00"/>
				<stop  offset="0.1547" style="stop-color:#FF9900"/>
				<stop  offset="1" style="stop-color:#FF5700"/>
			</linearGradient>
			<polygon class="st1" points="137.7,0 0,0 0,137.7 137.7,137.7 137.7,137.7 			"/>
			<linearGradient id="SVGID_4_" gradientUnits="userSpaceOnUse" x1="100.3357" y1="12.7135" x2="11.0036" y2="102.0456">
				<stop  offset="0" style="stop-color:#090A0A"/>
				<stop  offset="1" style="stop-color:#282828"/>
			</linearGradient>
			<path class="st2" d="M45.3,85c0,1.7,0.1,3.3,0.3,4.6c0.2,1.3,0.7,2.3,1.4,3.1c0.7,0.8,1.7,1.4,3,1.8c1.3,0.4,3,0.7,5.1,0.7
				c1.8,0,9.3,0,10,0l-2.9,15.7c0,0-1.6,0.1-3.8,0.1c-2.2,0-2.9,0-5.2,0c-4.4,0-8.3-0.4-11.6-1.1c-3.4-0.7-6.1-2-8.4-3.8
				c-2.2-1.8-3.9-4.2-5-7.2c-1.1-3-1.7-6.7-1.7-11.1V26.5h18.8V85z"/>
			<linearGradient id="SVGID_5_" gradientUnits="userSpaceOnUse" x1="122.1834" y1="34.5612" x2="32.8513" y2="123.8932">
				<stop  offset="0" style="stop-color:#090A0A"/>
				<stop  offset="1" style="stop-color:#282828"/>
			</linearGradient>
			<path class="st3" d="M111.7,82.9c0-1.2-0.1-2.5-0.2-3.7c-0.1-1.2-0.3-2.4-0.6-3.6c-0.3-1.1-0.6-2.3-1-3.4c-0.4-1-0.9-2-1.5-2.9
				c-0.1-0.1-0.2-0.3-0.3-0.4h0c-0.4-0.6-0.8-1.1-1.3-1.6c-0.5-0.5-1.1-1-1.7-1.4c-0.6-0.4-1.3-0.8-2-1.1c-0.7-0.4-1.5-0.7-2.3-1
				c-0.3-0.1-5.2-1.9-5.7-2c-0.5-0.2-1-0.3-1.5-0.5c-0.5-0.2-1-0.3-1.5-0.5c-0.5-0.1-0.9-0.3-1.4-0.4c-0.4-0.1-0.7-0.2-1.1-0.4
				c-0.3-0.1-0.5-0.2-0.8-0.3c-0.1,0-0.3-0.1-0.4-0.1c-0.8-0.3-1.6-0.7-2.2-1.2c-0.7-0.6-1.3-1.3-1.6-2.1c-0.3-0.8-0.4-1.7-0.4-2.5
				c-0.1-0.9-0.1-1.7-0.1-2.6h0c0-0.1,0-0.2,0-0.2c0-1.7,0.2-3,0.5-4.1c0.4-1.1,1-1.9,2-2.5c1-0.6,2.3-1.1,4-1.4
				c1.7-0.3,3.8-0.4,6.4-0.4c3.7,0,3.3,0.1,9.6,0.2l3-15.8c-3.3-0.2-4.6-0.2-6.6-0.2c-2,0-3.9,0-5.7,0c-6.2,0-11.5,0.5-15.7,1.4
				c-4.3,0.9-7.7,2.4-10.3,4.4c-2.6,2-4.5,4.5-5.6,7.6c-1.1,3-1.7,6.7-1.7,10.9V51c0,0.5,0,1,0,1.5c0,0.4,0,0.8,0,1.3
				c0,0.3,0,0.7,0,1c0,1.2,0.1,2.5,0.2,3.7c0.1,1.2,0.3,2.4,0.6,3.6c0.3,1.1,0.6,2.3,1,3.4c0.4,1,0.9,2,1.5,2.9
				c0.1,0.1,0.2,0.3,0.3,0.4h0c0.4,0.6,0.8,1.1,1.3,1.6c0.5,0.5,1.1,1,1.7,1.4c0.6,0.4,1.3,0.8,2,1.1c0.7,0.4,1.5,0.7,2.3,1
				c0.3,0.1,5.2,1.9,5.7,2c0.5,0.2,1,0.3,1.5,0.5c0.5,0.2,1,0.3,1.5,0.5c0.5,0.1,0.9,0.3,1.4,0.4c0.4,0.1,0.7,0.2,1.1,0.4
				c0.3,0.1,0.5,0.2,0.8,0.3c0.1,0,0.3,0.1,0.4,0.1c0.8,0.3,1.6,0.7,2.2,1.2c0.7,0.6,1.3,1.3,1.6,2.1c0.3,0.8,0.4,1.7,0.4,2.5
				c0.1,0.9,0.1,1.7,0.1,2.6h0c0,0.1,0,0.2,0,0.2c0,1.7-0.2,3-0.5,4.1c-0.4,1.1-1,1.9-2,2.5c-1,0.6-2.3,1.1-4,1.4
				c-1.7,0.3-3.8,0.4-6.4,0.4c-3.7,0-3.3-0.1-9.6-0.2l-3,15.8c3.3,0.2,4.6,0.2,6.6,0.2c2,0,3.9,0,5.7,0c6.2,0,11.5-0.5,15.7-1.4
				c4.3-0.9,7.7-2.4,10.3-4.4c2.6-2,4.5-4.5,5.6-7.6c1.1-3,1.7-6.7,1.7-10.9v-0.1c0-0.5,0-1,0-1.5c0-0.4,0-0.8,0-1.3
				C111.7,83.6,111.7,83.3,111.7,82.9z"/>
			<polygon class="st4" points="137.7,103 80.7,103 75.4,133.7 137.7,133.7 			"/>
			<linearGradient id="SVGID_6_" gradientUnits="userSpaceOnUse" x1="85.6275" y1="146.119" x2="132.1382" y2="99.6083">
				<stop  offset="0" style="stop-color:#04F39E"/>
				<stop  offset="1" style="stop-color:#0AFF61"/>
			</linearGradient>
			<polygon class="st5" points="137.7,105.2 82.9,105.2 77.2,137.7 137.7,137.7 			"/>
			<g>
				<path class="st6" d="M86.7,109.8h7.9c1.8,0,3.1,0.4,4,1.1c0.8,0.7,1.2,1.8,1.2,3.2v0.3c0,1.8-0.7,3-2.1,3.6
					c0.8,0.3,1.5,0.7,1.9,1.4c0.5,0.7,0.7,1.5,0.7,2.6v0.4c0,1.7-0.5,2.9-1.5,3.6c-1,0.8-2.5,1.1-4.4,1.1h-7.7V109.8z M90.5,112.9
					v3.8h3.4c0.8,0,1.3-0.1,1.7-0.4c0.3-0.3,0.5-0.8,0.5-1.4v-0.3c0-0.6-0.1-1-0.4-1.3c-0.3-0.3-0.8-0.4-1.5-0.4H90.5z M90.5,124.1
					h3.6c0.9,0,1.5-0.1,1.8-0.4c0.3-0.3,0.5-0.8,0.5-1.6v-0.3c0-0.8-0.2-1.3-0.5-1.6c-0.4-0.3-1-0.5-1.9-0.5h-3.6V124.1z"/>
				<path class="st6" d="M112.6,120h-7.2v3.8h8.7l-0.7,3.4h-12.1v-17.3H114l-0.6,3.4h-8v3.4h7.8L112.6,120z"/>
				<path class="st6" d="M129.8,109.8l-0.7,3.4h-5.2v14h-4v-14h-5.8l0.6-3.4H129.8z"/>
			</g>
		</g>
	</g>
	<g  class="logoLetters">
		<path class="st4" d="M691.5,26.1H730c8.8,0,15.2,1.7,19.3,5.2c4,3.5,6.1,8.7,6.1,15.7v1.3c0,8.6-3.5,14.4-10.4,17.3
			c4,1.3,7.1,3.6,9.4,6.7c2.2,3.1,3.4,7.3,3.4,12.5v2.1c0,8.1-2.5,14-7.4,17.6c-4.9,3.7-12,5.5-21.4,5.5h-37.5V26.1z M709.7,41v18.3
			h16.4c3.8,0,6.6-0.7,8.1-2.1c1.6-1.4,2.4-3.7,2.4-6.7V49c0-2.8-0.7-4.9-2.2-6.1c-1.5-1.3-3.9-1.9-7.5-1.9H709.7z M709.7,95.2h17.8
			c4.2,0,7.1-0.7,8.8-2.1c1.7-1.4,2.5-3.9,2.5-7.6V84c0-3.8-0.9-6.4-2.7-7.8c-1.8-1.5-4.8-2.2-9.1-2.2h-17.3V95.2z"/>
		<path class="st4" d="M779.9,85.5c0.1,2,0.3,3.7,0.6,5c0.4,1.3,1,2.3,1.9,3.1c0.9,0.8,2.1,1.3,3.6,1.6c1.5,0.3,3.4,0.4,5.7,0.4
			h10.4c3.7,0,7.9,0,12.6-0.1l-2.7,14.6c-3.9,0.2-7.6,0.2-11,0.2h-11.1c-5.6,0-10.2-0.6-13.9-1.7c-3.7-1.1-6.6-2.9-8.8-5.2
			c-2.2-2.3-3.8-5.2-4.7-8.7c-0.9-3.5-1.4-7.6-1.4-12.3v-6.5c0-5,0.5-9.3,1.5-12.9c1-3.7,2.6-6.7,5-9.1c2.3-2.4,5.3-4.3,9.1-5.5
			c3.7-1.2,8.3-1.8,13.9-1.8c9.9,0,17,2.1,21.2,6.2c4.2,4.1,6.4,9.9,6.4,17.3v2.5c0,2.6-0.2,4.7-0.5,6.4c-0.3,1.7-0.9,3-1.7,4
			c-0.8,1-1.9,1.7-3.2,2.1c-1.3,0.4-3,0.6-5,0.6H779.9z M790,60.3c-2.1,0-3.8,0.2-5.1,0.5c-1.3,0.4-2.3,1-3.1,1.9
			c-0.7,0.9-1.3,2.1-1.5,3.7c-0.3,1.6-0.4,3.6-0.4,6.1h20.4c0-2.5-0.1-4.6-0.4-6.1c-0.3-1.6-0.8-2.8-1.6-3.7
			c-0.8-0.9-1.8-1.5-3.1-1.9C793.8,60.5,792.1,60.3,790,60.3"/>
		<path class="st4" d="M842.1,63.1v22.3c0,2,0.1,3.7,0.4,5c0.2,1.3,0.7,2.3,1.4,3.1c0.7,0.7,1.7,1.3,2.9,1.5
			c1.2,0.3,2.8,0.4,4.9,0.4h2.6h3.4c1.1,0,2.2,0,3.2-0.1c1,0,1.7-0.1,2.1-0.1L860,110h-1.9c-0.9,0-1.9,0-3,0.1
			c-1.1,0-2.2,0.1-3.2,0.1h-2.5c-5.3,0-9.6-0.4-13-1.1c-3.4-0.7-6-2-8-3.9c-1.9-1.8-3.2-4.3-4-7.5c-0.7-3.1-1.1-7.1-1.1-11.9V34.1
			l18.7-2.7v17h21.5l-2.8,14.7H842.1z"/>
		<path class="st4" d="M258.7,33c0,3.2-0.7,5.5-2.2,6.9c-1.5,1.4-4.2,2.1-8.2,2.1c-4.1,0-6.9-0.7-8.4-2.1c-1.5-1.4-2.2-3.7-2.2-6.9
			c0-3,0.7-5.2,2.2-6.7c1.5-1.4,4.3-2.2,8.4-2.2c4,0,6.8,0.7,8.2,2.2C258,27.8,258.7,30,258.7,33 M239,49.8h18.5v60.8H239V49.8z"/>
		<polygon class="st4" points="281.7,49.8 293.8,91.9 306.2,49.8 325.3,49.8 304.3,110.5 282.8,110.5 261.5,49.8 		"/>
		<path class="st4" d="M344.8,86.4c0.1,2,0.3,3.6,0.6,4.9c0.3,1.2,1,2.2,1.9,3c0.9,0.8,2.1,1.3,3.5,1.6c1.5,0.3,3.3,0.4,5.6,0.4
			h10.3c3.7,0,7.8,0,12.4-0.1l-2.7,14.4c-3.9,0.2-7.5,0.2-10.8,0.2h-10.9c-5.5,0-10.1-0.6-13.7-1.7c-3.6-1.1-6.5-2.8-8.7-5.1
			c-2.2-2.3-3.7-5.1-4.6-8.6c-0.9-3.4-1.3-7.5-1.3-12.1v-6.4c0-4.9,0.5-9.1,1.5-12.7c1-3.6,2.6-6.6,4.9-9c2.3-2.4,5.3-4.2,8.9-5.4
			c3.7-1.2,8.2-1.8,13.7-1.8c9.8,0,16.7,2,20.9,6.1c4.2,4.1,6.3,9.7,6.3,17v2.4c0,2.6-0.2,4.6-0.5,6.3c-0.3,1.6-0.9,2.9-1.7,4
			c-0.8,1-1.9,1.7-3.2,2.1c-1.3,0.4-2.9,0.6-4.9,0.6H344.8z M354.8,61.5c-2.1,0-3.8,0.2-5.1,0.5c-1.3,0.3-2.3,1-3,1.9
			c-0.7,0.9-1.2,2.1-1.5,3.7c-0.3,1.5-0.4,3.6-0.4,6h20.1c0-2.5-0.1-4.5-0.4-6c-0.3-1.5-0.8-2.8-1.6-3.7c-0.8-0.9-1.8-1.5-3.1-1.9
			C358.6,61.7,356.9,61.5,354.8,61.5"/>
		<path class="st4" d="M429.7,64.6c2.7,1.2,4.9,2.8,6.5,4.7c1.6,1.9,2.8,4.1,3.5,6.7c0.7,2.6,1,5.6,1,9v1.7c0,4.2-0.5,7.8-1.6,10.7
			c-1.1,3-2.9,5.5-5.5,7.4c-2.6,2-5.9,3.4-10.1,4.4c-4.2,0.9-9.3,1.4-15.5,1.4h-5.6h-2.7c-2.4,0-0.5,0-3.5-0.1
			c-3,0-6.4-0.1-10.2-0.2l2.9-15.6c6.1,0.2,6.8,0.2,11.1,0.2h8.1c2.6,0,4.7-0.1,6.3-0.4c1.7-0.3,3-0.7,3.9-1.3c1-0.6,1.6-1.5,2-2.5
			c0.3-1,0.5-2.4,0.5-4c0-1.5-0.1-2.7-0.3-3.7c-0.2-1-0.6-1.8-1.3-2.5c-0.7-0.7-1.5-1.2-2.7-1.6c-1.1-0.4-16.7-5-19.5-6.2
			c-2.9-1.2-5.1-2.7-6.8-4.6c-1.7-1.9-2.8-4.1-3.4-6.6c-0.6-2.6-0.9-5.5-0.9-8.9v-1.9c0-3.7,0.5-7,1.6-9.9c1.1-2.9,2.9-5.3,5.3-7.3
			c2.5-2,5.7-3.5,9.7-4.6c4-1,8.8-1.6,14.6-1.6h4.4c2.3,0,4.8,0,7.4,0.1c2.7,0,5.7,0.1,9.1,0.2l-2.9,15.6c-6-0.2-11.2-0.2-15.4-0.2
			h-3c-2.3,0-4.3,0.1-5.8,0.4c-1.5,0.3-2.7,0.7-3.6,1.3c-0.9,0.6-1.5,1.4-1.8,2.4c-0.3,1-0.5,2.2-0.5,3.7c0,1.3,0.1,2.4,0.3,3.4
			c0.2,0.9,0.6,1.7,1.2,2.3c0.6,0.6,1.4,1.1,2.5,1.6C410.4,58.6,427,63.4,429.7,64.6"/>
		<path class="st4" d="M476.5,49.5h7.3c2.7,0,6.3,0.1,10.7,0.2l-2.8,14.6c-1.3-0.1-2.5-0.1-3.6-0.2c-1.1,0-2.2-0.1-3.3-0.1
			c-1.1,0-2.2-0.1-3.4-0.1h-4.2c-2.4,0-4.4,0.2-5.9,0.5c-1.5,0.3-2.8,0.9-3.7,1.9c-0.9,0.9-1.5,2.2-1.9,4c-0.3,1.7-0.5,4-0.5,6.7
			v6.2c0,2.8,0.2,5,0.5,6.7c0.3,1.7,1,3,1.9,4c0.9,0.9,2.2,1.5,3.7,1.9c1.5,0.3,3.5,0.5,5.8,0.5h8.9c2.6,0,5.5-0.1,8.7-0.2
			l-2.8,14.5c-3.1,0.1-6,0.1-8.7,0.2c-2.7,0-4.9,0.1-6.6,0.1c-5.7,0-10.5-0.5-14.3-1.5c-3.8-1-6.9-2.6-9.3-4.8c-2.4-2.2-4-5-5.1-8.5
			c-1-3.5-1.5-7.7-1.5-12.8v-6.2c0-5,0.5-9.2,1.6-12.7c1-3.5,2.8-6.3,5.2-8.5c2.4-2.2,5.5-3.8,9.3-4.8C466.4,50,471,49.5,476.5,49.5
			"/>
		<path class="st4" d="M528.1,47.9c5.4,0,10,0.5,13.8,1.4c3.8,0.9,6.9,2.5,9.2,4.8c2.4,2.2,4.1,5.2,5.2,8.9
			c1.1,3.7,1.6,8.4,1.6,13.9v6.4c0,5.5-0.5,10.1-1.6,13.8c-1.1,3.7-2.8,6.7-5.2,8.9c-2.4,2.2-5.4,3.9-9.2,4.8
			c-3.8,1-8.4,1.5-13.8,1.5c-5.4,0-10-0.5-13.8-1.5c-3.8-1-6.9-2.6-9.3-4.8c-2.4-2.2-4.1-5.2-5.2-8.9c-1.1-3.7-1.6-8.3-1.6-13.8V77
			c0-5.6,0.5-10.2,1.6-13.9c1.1-3.7,2.8-6.7,5.2-8.9c2.4-2.2,5.5-3.8,9.3-4.8C518.1,48.4,522.7,47.9,528.1,47.9 M539.3,76.4
			c0-3-0.2-5.4-0.5-7.3c-0.3-1.8-0.9-3.2-1.7-4.2c-0.9-1-2-1.6-3.4-2c-1.4-0.3-3.3-0.5-5.5-0.5c-2.2,0-4.1,0.2-5.5,0.5
			c-1.4,0.3-2.6,1-3.4,2c-0.9,1-1.5,2.4-1.8,4.2c-0.3,1.8-0.5,4.2-0.5,7.3v7.4c0,3,0.2,5.5,0.5,7.3c0.3,1.9,0.9,3.3,1.8,4.2
			c0.9,1,2,1.6,3.4,2c1.4,0.3,3.3,0.5,5.5,0.5c2.2,0,4.1-0.2,5.5-0.5c1.4-0.3,2.6-1,3.4-2c0.9-1,1.4-2.4,1.7-4.2
			c0.3-1.9,0.5-4.3,0.5-7.3V76.4z"/>
		<path class="st4" d="M582.3,110.5h-18.5V72.3c0-4.3,0.5-8,1.6-10.9c1.1-2.9,2.7-5.3,4.9-7.1c2.2-1.8,5-3,8.2-3.8
			c3.3-0.7,7.1-1.1,11.4-1.1h6.6c2.1,0,4.6,0.1,7.4,0.2l-2.8,15c-0.7-0.1-2-0.1-3.8-0.2c-1.9,0-3.7-0.1-5.5-0.1
			c-2.1,0-3.8,0.2-5.1,0.6c-1.3,0.4-2.3,1-3,1.7c-0.7,0.8-1.1,1.8-1.3,3.1c-0.2,1.3-0.3,2.8-0.3,4.5V110.5z"/>
		<path class="st4" d="M623.6,86.4c0.1,2,0.3,3.6,0.6,4.9c0.3,1.2,1,2.2,1.9,3c0.9,0.8,2.1,1.3,3.5,1.6c1.5,0.3,3.3,0.4,5.6,0.4
			h10.3c3.7,0,7.8,0,12.4-0.1l-2.7,14.4c-3.9,0.2-7.5,0.2-10.8,0.2h-10.9c-5.5,0-10.1-0.6-13.7-1.7c-3.6-1.1-6.5-2.8-8.7-5.1
			c-2.2-2.3-3.7-5.1-4.6-8.6c-0.9-3.4-1.3-7.5-1.3-12.1v-6.4c0-4.9,0.5-9.1,1.5-12.7c1-3.6,2.6-6.6,4.9-9c2.3-2.4,5.3-4.2,8.9-5.4
			c3.7-1.2,8.2-1.8,13.7-1.8c9.8,0,16.7,2,20.9,6.1c4.2,4.1,6.3,9.7,6.3,17v2.4c0,2.6-0.2,4.6-0.5,6.3c-0.3,1.6-0.9,2.9-1.7,4
			c-0.8,1-1.9,1.7-3.2,2.1c-1.3,0.4-2.9,0.6-4.9,0.6H623.6z M633.6,61.5c-2.1,0-3.8,0.2-5.1,0.5c-1.3,0.3-2.3,1-3,1.9
			s-1.2,2.1-1.5,3.7c-0.3,1.5-0.4,3.6-0.4,6h20.1c0-2.5-0.1-4.5-0.4-6c-0.3-1.5-0.8-2.8-1.6-3.7c-0.8-0.9-1.8-1.5-3.1-1.9
			C637.4,61.7,635.7,61.5,633.6,61.5"/>
		<path class="st4" d="M203.7,85c0,1.7,0.1,3.2,0.3,4.5c0.2,1.3,0.6,2.3,1.3,3.1c0.7,0.8,1.7,1.4,3,1.7c1.3,0.4,3,0.7,5.1,0.7
			c1.8,0,19.6,0.2,20.3,0.1l-2.7,15.1c-2.8,0.2-10.8,0.2-13,0.2h-6.6c-4.3,0-8.2-0.4-11.4-1.1c-3.3-0.7-6-2-8.2-3.8
			c-2.2-1.8-3.9-4.1-4.9-7.1c-1.1-2.9-1.6-6.6-1.6-10.9V27.6h18.5V85z"/>
		<polygon class="st4" points="878.8,31.5 878.3,34.1 874.4,34.1 874.4,44.6 871.4,44.6 871.4,34.1 867,34.1 867.5,31.5 		"/>
		<polygon class="st4" points="885.5,40.9 883,36.1 883,44.6 880.1,44.6 880.1,31.5 883.4,31.5 886.8,38.2 890.1,31.5 893.3,31.5 
			893.3,44.6 890.4,44.6 890.4,36 887.9,40.9 		"/>
	</g>
</g>
</svg>
