<?xml version="1.0" encoding="utf-8"?>
<!-- Generator: Adobe Illustrator 25.3.0, SVG Export Plug-In . SVG Version: 6.00 Build 0)  -->
<svg version="1.1" id="Layer_1" xmlns="http://www.w3.org/2000/svg" xmlns:xlink="http://www.w3.org/1999/xlink" x="0px" y="0px"
	 viewBox="0 0 675.854 162.594" style="enable-background:new 0 0 675.854 162.594;" xml:space="preserve">
<style type="text/css">
	.st0{fill:#FF5500;}
</style>
<g>
	<path d="M184.782,116.502c-10.279,0-18.642-8.362-18.642-18.641V81.534c0-10.279,8.363-18.641,18.642-18.641h10.494
		c10.279,0,18.641,8.362,18.641,18.641V95.79h-33.301v2.071c0,2.297,1.869,4.165,4.166,4.165h28.931l-3.501,14.476H184.782z
		 M184.782,75.77c-2.297,0-4.166,1.869-4.166,4.165v3.885h18.826v-3.885c0-2.297-1.869-4.165-4.165-4.165H184.782z"/>
	
		<rect x="73.542" y="83.156" transform="matrix(-1.836970e-16 1 -1 -1.836970e-16 190.0438 -9.8503)" width="52.81" height="13.881"/>
	<polygon points="130.405,116.502 112.181,63.692 126.984,63.692 138.55,97.206 150.115,63.692 164.918,63.692 146.694,116.502 	"/>
	<path d="M331.482,116.502c-10.279,0-18.642-8.362-18.642-18.641V81.534c0-10.279,8.363-18.641,18.642-18.641h10.494
		c10.279,0,18.641,8.362,18.641,18.641v16.327c0,10.279-8.362,18.641-18.641,18.641H331.482z M331.482,77.368
		c-2.297,0-4.166,1.869-4.166,4.165v16.327c0,2.297,1.869,4.165,4.166,4.165h10.494c2.297,0,4.165-1.869,4.165-4.165V81.534
		c0-2.297-1.869-4.165-4.165-4.165H331.482z"/>
	<path d="M287.448,116.502c-10.279,0-18.642-8.362-18.642-18.641V81.534c0-10.279,8.363-18.641,18.642-18.641h21.163l-3.501,14.476
		h-17.661c-2.297,0-4.166,1.869-4.166,4.165v16.327c0,2.297,1.869,4.165,4.166,4.165h21.163l-3.501,14.476H287.448z"/>
	<path d="M366.628,116.502V81.534c0-10.279,8.363-18.641,18.642-18.641h14.621l-3.501,14.476h-11.12
		c-2.297,0-4.166,1.869-4.166,4.165v34.968H366.628z"/>
	<path d="M420.26,116.502c-10.279,0-18.642-8.362-18.642-18.641V81.534c0-10.279,8.363-18.641,18.642-18.641h10.494
		c10.279,0,18.641,8.362,18.641,18.641V95.79h-33.301v2.071c0,2.297,1.869,4.165,4.166,4.165h28.712l-3.501,14.476H420.26z
		 M420.26,75.77c-2.297,0-4.166,1.869-4.166,4.165v3.885h18.826v-3.885c0-2.297-1.869-4.165-4.165-4.165H420.26z"/>
	<path d="M99.947,57.633c-4.034,0-7.317-3.282-7.317-7.317S95.913,43,99.947,43s7.317,3.282,7.317,7.316
		S103.981,57.633,99.947,57.633z"/>
	<path d="M217.702,116.502l3.501-14.476h24.098c2.297,0,4.165-1.869,4.165-4.165v-5.622c0-2.182-1.704-4.007-3.88-4.156
		c-0.064-0.005-10.362-0.879-10.672-0.903c-9.631-0.753-17.175-8.916-17.175-18.584v-3.452c0-10.279,8.362-18.641,18.641-18.641
		h24.162l-3.501,14.476h-20.66c-2.297,0-4.166,1.869-4.166,4.166v3.452c0,2.157,1.683,3.98,3.831,4.152l1.562,0.133
		c2.874,0.244,8.726,0.742,9.088,0.769c9.671,0.718,17.247,8.884,17.247,18.589v5.622c0,10.279-8.362,18.641-18.641,18.641H217.702z
		"/>
	<path class="st0" d="M529.5,116.477c-10.279-0.048-18.603-8.449-18.555-18.727l0.076-16.327
		c0.048-10.279,8.449-18.602,18.728-18.554l10.494,0.049c10.279,0.048,18.602,8.449,18.554,18.727l-0.066,14.256l-33.301-0.155
		l-0.01,2.071c-0.011,2.297,1.849,4.174,4.147,4.185l28.712,0.133l-3.57,14.459L529.5,116.477z M529.624,75.77
		c-2.297,0-4.166,1.869-4.166,4.165v3.885h18.826v-3.885c0-2.297-1.869-4.165-4.165-4.165H529.624z"/>
	<path class="st0" d="M578.908,97.861V75.75h13.899l3.115-12.88h-17.014V46.651h-14.476v51.21c0,10.278,8.363,18.641,18.641,18.641
		h14.494v-14.476h-14.494C580.776,102.026,578.908,100.158,578.908,97.861z"/>
	<path class="st0" d="M501.833,79.005c1.852-2.895,2.94-6.323,2.94-10.007v-3.706c0-10.279-8.362-18.641-18.641-18.641h-7.206
		h-1.104h-4.166H459.18v14.476v4.166v3.706v22.806v6.057v4.165v14.476h14.476h4.163c0.001,0,0.002,0,0.004,0h10.494
		c10.279,0,18.641-8.362,18.641-18.641v-6.057C506.957,86.847,505,82.348,501.833,79.005z M486.132,61.127
		c2.297,0,4.165,1.869,4.165,4.165v3.706c0,2.296-1.867,4.164-4.163,4.165h-8.312c-0.001,0-0.002,0-0.004,0h-4.163V61.127H486.132z
		 M492.482,97.861c0,2.297-1.869,4.165-4.165,4.165h-9.39v0h-5.27V87.639h4.166h8.31h2.184c2.297,0,4.165,1.869,4.165,4.165V97.861z
		"/>
	<path class="st0" d="M608.085,76.05V65.195h-3.713v-2.337h10.083v2.337h-3.694V76.05H608.085z"/>
	<path class="st0" d="M623.671,71.942h-1.658l-2.601-4.335v8.443h-2.582V62.858h2.582l3.468,5.824l3.468-5.824h2.507V76.05h-2.582
		v-8.443L623.671,71.942z"/>
	<path d="M67.93,116.453c-10.279,0-18.641-8.362-18.641-18.641v-51.21h14.476v51.21c0,2.297,1.869,4.165,4.166,4.165h19.489
		l-3.502,14.476H67.93z"/>
</g>
</svg>
