<?xml version="1.0" encoding="UTF-8"?><svg id="a" xmlns="http://www.w3.org/2000/svg" viewBox="0 0 600.1 100.7"><defs><style>.b{fill:#fff;}.c{fill:#d70a0a;}</style></defs><path d="M151.8,42.2c0-4.4-2.8-6.2-6.9-6.2h-12.3v12.7h11.3c5.2,.1,7.9-2,7.9-6.5m11.5,0c0,9.4-6,15.8-17.6,15.8h-13.1v15.2h-11V27.4h26.1c10,.1,15.6,5.5,15.6,14.8m43.7,8.3c0-9.7-5.9-14.5-13.6-14.5-7.6,.1-13.6,4.8-13.6,14.5s5.9,14.2,13.6,14.2c7.6,0,13.6-4.8,13.6-14.2m11.8,0c0,15.5-11.3,23.4-25.3,23.4s-25.3-7.9-25.3-23.4,11.3-23.7,25.3-23.7c14-.1,25.3,7.9,25.3,23.7m25.5,3.8l-7.5,8.5v10.3h-11V27.4h11v21.6l19.3-21.6h13.8l-18,19.3,20,26.4h-13.6l-14-18.8Zm44.4-17.7v8.8h22.6v8.8h-22.6v9.7h25.3v9.3h-36.3V27.5h36.3v9.1h-25.3Zm44.5,11.3h12c4.5,0,7.5-1.7,7.5-5.8,0-4.4-3-6-7.2-6h-12.3v11.8h0Zm7.9,8.9h-7.8v16.4h-11V27.5h26.6c10.7,0,15.5,6.1,15.5,14.2,0,7.4-4.1,13-11.1,14.5l13.6,17.2h-13.4l-12.4-16.6Zm50.1-30c5.6-.1,11,.5,16.4,1.6v9.5c-5.6-1.4-11.4-2.1-17.2-2.1-5.4,0-8.7,1.7-8.8,4.4-.1,2.7,1.8,4,5.9,4.3l8.8,.5c9.1,.5,14.5,4.7,14.5,13.4,0,11.7-9.9,15.3-21.1,15.3-5.7-.1-11.4-.6-17.1-1.6v-9.8c5.7,1.2,11.6,1.8,17.4,1.9,7,0,10.1-1.7,10.1-5.2,0-2.9-3-4.1-7.2-4.3l-7.2-.4c-9.1-.5-14.5-4.4-14.5-12.5-.2-10.5,8.7-15,20-15m64.5,10.2h-15.2v36.2h-11V37h-15.3v-9.5h41.5v9.5Zm30.7,17.7l-7.5-19.2-7.5,19.2h15Zm3.5,9h-21.9l-3.7,9.5h-12l18.8-45.8h15.5l18.7,45.8h-12l-3.4-9.5Zm32.3-15.8h12c4.5,0,7.5-1.7,7.5-5.8,0-4.4-3-6-7.2-6h-12.3v11.8h0Zm7.9,8.9h-7.8v16.4h-11V27.5h26.6c10.7,0,15.5,6.1,15.5,14.2,0,7.4-4.1,13-11.1,14.5l13.6,17.2h-13.4l-12.4-16.6Zm50.1-30c5.6-.1,11.4,.5,16.8,1.6v9.5c-5.6-1.4-11.8-2.1-17.6-2.1-5.4,0-8.7,1.7-8.8,4.4-.1,2.7,1.8,4,5.9,4.3l8.8,.5c9.1,.5,14.8,4.7,14.8,13.4,0,11.7-10.2,15.3-21.5,15.3-5.7,0-11.4-.6-17.1-1.6v-9.8c5.7,1.2,11.6,1.8,17.4,1.9,7,0,10.1-1.7,10.1-5.2,0-2.9-3-4.1-7.2-4.3l-7.2-.4c-9-.5-14.6-4.4-14.6-12.4,0-10.6,9-15.1,20.2-15.1"/><path class="c" d="M65.8,21.3C52.6,8.1,44.2,0,44.2,0c0,0-8.4,8.1-21.6,21.3C15.7,28.2,0,45.4,0,62.6c0,11.4,9.3,20.7,20.7,20.7,7.5,0,14.1-4,17.7-10h0c.4-.5,1-.8,1.6-.8,1.1,0,2.1,.8,1.9,1.7-.8,6.2-4.3,21.3-18,26.5h40.4c-13.7-5.1-17.1-20.3-18-26.5-.2-.9,.8-1.7,1.9-1.7,.7,0,1.3,.4,1.6,.8h0c3.6,5.9,10.2,10,17.7,10,11.4,0,20.7-9.3,20.7-20.7,.3-17.2-15.4-34.4-22.4-41.3"/><polygon class="b" points="44.3 21.3 49.9 38.6 68.1 38.6 53.4 49.2 59 66.5 44.3 55.9 29.6 66.5 35.2 49.2 20.5 38.6 38.7 38.6 44.3 21.3"/></svg>