<?xml version="1.0" encoding="utf-8"?>
<!-- Generator: Adobe Illustrator 25.3.1, SVG Export Plug-In . SVG Version: 6.00 Build 0)  -->
<svg version="1.1" id="Layer_1" xmlns="http://www.w3.org/2000/svg" xmlns:xlink="http://www.w3.org/1999/xlink" x="0px" y="0px"
	 viewBox="0 0 764.9 160" style="enable-background:new 0 0 764.9 160;" xml:space="preserve">
<style type="text/css">
	.st0{fill:#D70A0A;}
	.st1{fill:#FFFFFF;}
</style>
<path class="st0" d="M88.3,29.6C71.7,13,61.1,2.7,61.1,2.7S50.5,13,33.9,29.6C25.1,38.3,5.4,60.1,5.4,81.7
	c0,14.4,11.7,26.1,26.1,26.1c9.5,0,17.8-5.1,22.3-12.6l0,0c0.5-0.6,1.2-1.1,2-1.1c1.3,0,2.6,1,2.4,2.1c-1,7.8-5.4,26.9-22.7,33.4
	h50.9c-17.3-6.4-21.6-25.6-22.7-33.4c-0.2-1.2,1.1-2.1,2.4-2.1c0.9,0,1.6,0.5,2,1.1l0,0c4.5,7.5,12.9,12.6,22.3,12.6
	c14.4,0,26.1-11.7,26.1-26.1C116.7,60.1,97.1,38.3,88.3,29.6"/>
<polygon class="st1" points="61.1,29.7 68.2,51.4 91,51.4 72.5,64.9 79.6,86.6 61.1,73.1 42.5,86.6 49.6,64.9 31.1,51.4 54.1,51.4 
	"/>
<g>
	<path d="M196.6,56.1c0-5.6-3.6-7.8-8.7-7.8h-15.5v16h14.2C193.2,64.3,196.6,61.7,196.6,56.1 M211.1,55.9c0,11.8-7.6,20-22.2,20
		h-16.5V95h-13.9V37.3h32.9C204.1,37.3,211.1,44.4,211.1,55.9"/>
	<path d="M266.2,66.3c0-12.3-7.5-18.3-17.1-18.2c-9.6,0.1-17.1,6-17.1,18.2c0,11.9,7.5,17.9,17.1,17.9
		C258.7,84.3,266.2,78.3,266.2,66.3 M281,66.3c0,19.6-14.3,29.5-31.9,29.5c-17.7,0-31.9-10-31.9-29.5c0-19.9,14.3-29.8,31.9-29.8
		C266.7,36.5,281,46.5,281,66.3"/>
	<polygon points="313.2,71.3 303.8,82 303.8,95 289.8,95 289.8,37.3 303.8,37.3 303.8,64.6 328.1,37.3 345.4,37.3 322.6,61.7 
		347.9,95 330.7,95 	"/>
	<polygon points="369.3,49 369.3,60.1 397.8,60.1 397.8,71.1 369.3,71.1 369.3,83.2 401,83.2 401,95 355.3,95 355.3,37.3 401,37.3 
		401,49 	"/>
	<path d="M425.3,63.3h15.2c5.7,0,9.5-2.1,9.5-7.3c0-5.6-3.8-7.6-9-7.6h-15.5L425.3,63.3L425.3,63.3z M435.2,74.3h-9.9V95h-13.9V37.3
		h33.5c13.4,0,19.6,7.7,19.6,17.9c0,9.3-5.2,16.4-14,18.2l17.2,21.7h-16.9L435.2,74.3z"/>
	<path d="M498.2,36.5c7-0.1,13.9,0.6,20.7,2v12c-7.1-1.7-14.4-2.6-21.7-2.6c-6.8,0-10.9,2.1-11,5.6s2.2,5,7.4,5.4l11,0.7
		c11.4,0.7,18.2,6,18.2,16.9c0,14.7-12.5,19.3-26.6,19.3c-7.2-0.1-14.4-0.8-21.5-2V81.4c7.2,1.5,14.6,2.3,21.9,2.4
		c8.8,0,12.8-2.1,12.8-6.5c0-3.6-3.8-5.2-9-5.5l-9.1-0.5c-11.4-0.6-18.3-5.6-18.3-15.7C472.9,42.2,484.1,36.5,498.2,36.5"/>
	<polygon points="579.6,49.3 560.5,49.3 560.5,95 546.5,95 546.5,49.3 527.3,49.3 527.3,37.3 579.6,37.3 	"/>
	<path d="M618.3,71.8l-9.4-24.2l-9.3,24.2H618.3z M622.7,83h-27.5l-4.6,12h-15.1l23.6-57.7h19.6L642.3,95h-15L622.7,83z"/>
	<path d="M663.5,63.3h15.2c5.7,0,9.5-2.1,9.5-7.3c0-5.6-3.8-7.6-9-7.6h-15.5L663.5,63.3L663.5,63.3z M673.4,74.3h-9.9V95h-13.9V37.3
		H683c13.4,0,19.6,7.7,19.6,17.9c0,9.3-5.2,16.4-14,18.2l17.2,21.7h-16.9L673.4,74.3z"/>
	<path d="M736.6,36.5c7-0.1,14.4,0.6,21.2,2v12c-7.1-1.7-14.9-2.6-22.2-2.6c-6.8,0-10.9,2.1-11,5.6s2.2,5,7.4,5.4l11,0.7
		c11.4,0.7,18.6,6,18.6,16.9c0,14.7-12.9,19.3-27.1,19.3c-7.2,0-14.4-0.8-21.5-2V81.4c7.2,1.5,14.6,2.3,21.9,2.4
		c8.8,0,12.8-2.1,12.8-6.5c0-3.6-3.7-5.2-9-5.5l-9.1-0.5c-11.3-0.6-18.4-5.6-18.4-15.6C711.1,42.2,722.4,36.5,736.6,36.5"/>
	<path d="M406.2,124.1c0,8.2,5.6,12.1,14.7,12.6l7.3,0.4c4.2,0.2,7.3,1.4,7.3,4.3c0,3.5-3.2,5.2-10.3,5.2c-6.2,0-12.1-0.8-17.6-1.9
		v9.9c4.8,1,12.1,1.6,17.2,1.6c11.3,0,21.3-3.6,21.3-15.5c0-8.7-5.4-13-14.6-13.5l-8.8-0.6c-4.1-0.3-6-1.5-6-4.3
		c0.1-2.8,3.4-4.5,8.8-4.5c6,0,11.3,0.7,17.4,2v-9.6c-4.6-1.1-10.4-1.6-16.6-1.6C415.2,108.9,406.2,113.5,406.2,124.1 M401,109.4
		h-41.8v9.6h15.5v36.6h11.1V119H401V109.4z M322.4,118.3h12.5c4.1,0,7.3,1.6,7.3,6c0,4.1-3.1,5.9-7.6,5.9h-12.1L322.4,118.3
		L322.4,118.3z M342.8,155.7h13.5l-13.7-17.4c7.1-1.4,11.2-7.1,11.2-14.6c0-8.1-5-14.2-15.7-14.2h-26.8v46.2h11.1v-16.5h7.9
		L342.8,155.7z M278.4,147.1c-7.7,0-13.6-4.9-13.6-14.4c0-9.8,6-14.6,13.6-14.6c7.7-0.1,13.6,4.7,13.6,14.6
		C292,142.3,286,147.1,278.4,147.1 M278.4,108.9c-14.1,0-25.5,8-25.5,23.9c0,15.6,11.4,23.6,25.5,23.6s25.5-8,25.5-23.6
		C303.9,116.8,292.5,108.9,278.4,108.9 M227.8,131h-11.4v-12.8h12.4c4.1,0,7,1.8,7,6.2C235.6,129,233,131,227.8,131 M231.5,109.4
		h-26.3v46.2h11.1v-15.4h13.1c11.7,0,17.8-6.5,17.8-15.9C247.3,115.1,241.6,109.4,231.5,109.4 M158.6,124.1
		c0,8.2,5.6,12.1,14.7,12.6l7.3,0.4c4.2,0.2,7.3,1.4,7.3,4.3c0,3.5-3.2,5.2-10.3,5.2c-6.2,0-12.1-0.8-17.6-1.9v9.9
		c4.8,1,12.1,1.6,17.2,1.6c11.3,0,21.3-3.6,21.3-15.5c0-8.7-5.4-13-14.6-13.5l-8.8-0.6c-4.1-0.3-6-1.5-6-4.3
		c0.1-2.8,3.4-4.5,8.8-4.5c6,0,11.3,0.7,17.4,2v-9.6c-4.6-1.1-10.4-1.6-16.6-1.6C167.5,108.9,158.6,113.5,158.6,124.1"/>
</g>
</svg>
