<?xml version="1.0" encoding="utf-8"?>
<!-- Generator: Adobe Illustrator 24.3.0, SVG Export Plug-In . SVG Version: 6.00 Build 0)  -->
<svg version="1.1" id="Isolation_Mode" xmlns="http://www.w3.org/2000/svg" xmlns:xlink="http://www.w3.org/1999/xlink" x="0px"
	 y="0px" viewBox="0 0 525.8 120.6" style="enable-background:new 0 0 525.8 120.6;" xml:space="preserve">
<style type="text/css">
	.st0{fill:#004732;}
	.st1{fill:#2C963E;}
</style>
<g>
	<g>
		<path class="st0" d="M0,52.7c1.9-0.4,6.2-1,9.4-1.3c2.6-0.2,5.3-0.4,7.9-0.3c3.5,0,6.9,0.8,10.1,2.1c6.1,2.6,10.1,8.5,10.5,15.1
			c0.3,3.4-0.2,6.8-1.5,10c-1.4,3.1-3.6,5.8-6.5,7.7c-1.9,1.2-3.9,2.1-6.1,2.8c-2.5,0.8-5.2,1.3-7.8,1.6l1.5,17.3l-12.6,1.1L0,52.7z
			 M24.9,69.5c-0.2-2.6-1.6-4.9-3.8-6.1c-1.6-0.9-3.5-1.2-5.3-1c-0.5,0.1-1.2,0.1-2.1,0.3l1.5,16.4c0.3,0,1.7-0.1,2.3-0.3
			c1.8-0.2,3.5-0.9,4.9-2c1-0.8,1.7-1.8,2.2-3C24.9,72.4,25.1,71,24.9,69.5L24.9,69.5L24.9,69.5z"/>
		<path class="st0" d="M51.6,96.5l-2.5,8.4l-13.7,1.2l20.3-59.5l1.9-0.2l30,55.1l-15,1.3L68.8,95L51.6,96.5z M63.8,84.7l-5.6-12.2
			l-3.6,13L63.8,84.7z M136.5,67.8c0.9,10.8-3,19.6-10.6,25.7c-4.7,3.7-11.2,5.9-18.7,6.6c-3.6,0.3-7.1,0.5-9.4,0.7
			c-1.5,0.1-3.7,0.1-5.2,0.1l-4.9-55.7c1.4-0.3,3.2-0.6,6.5-1.1s6.2-0.8,8.9-1c8.6-0.8,15,0.4,20,2.9
			C132.3,50.6,135.8,59.5,136.5,67.8L136.5,67.8L136.5,67.8z M122.7,69.3c-0.4-5.1-2.6-9.6-6.5-12.1c-3.1-1.9-6.8-2.7-10.5-2.2
			c-1.4,0.1-2.7,0.4-3.6,0.5l2.8,32.1c0,0.1,0,0.1,0.1,0.1c0,0,0,0,0.1,0c1.1,0,2.2,0,3.3-0.1c3.2-0.3,6.3-1.5,8.8-3.6
			C120.8,80.9,123.3,76.1,122.7,69.3L122.7,69.3L122.7,69.3z M190.1,63.1c0.9,10.8-2.9,19.6-10.6,25.6c-4.7,3.8-11.1,5.9-18.7,6.6
			c-3.6,0.3-7.1,0.5-9.4,0.7c-1.5,0.1-3.7,0.1-5.2,0.1l-4.8-55.7c5.1-0.9,12.7-1.8,15.4-2c8.6-0.8,15,0.4,20,2.9
			C185.9,45.9,189.4,54.8,190.1,63.1L190.1,63.1L190.1,63.1z M176.3,64.6c-0.4-5.1-2.6-9.6-6.5-12.2c-3.1-1.9-6.8-2.7-10.4-2.2
			c-1.4,0.1-2.8,0.4-3.7,0.5l2.8,32.2c0,0.1,0,0.1,0.1,0.1l0,0c1.1,0,2.2,0,3.3-0.1c3.3-0.3,6.3-1.5,8.8-3.6
			C174.5,76.2,176.9,71.4,176.3,64.6L176.3,64.6L176.3,64.6z M221.7,65.8l2,23.9l-13.3,1.2l-2-23.2l-21.8-31.4l15-1.3L214,53.6
			l9.3-20.5l14.2-1.2L221.7,65.8z M241.3,31.6c3.1-0.6,6.2-1,9.4-1.2c2.6-0.2,5.3-0.4,7.9-0.3c3.4,0,6.8,0.7,10,2.1
			c6.1,2.6,10.1,8.5,10.5,15.1c0.3,3.4-0.2,6.8-1.5,10c-1.4,3.1-3.7,5.8-6.5,7.7c-1.9,1.2-3.9,2.1-6.1,2.7c-2.5,0.8-5.1,1.3-7.7,1.6
			l1.5,17.3l-12.6,1.1L241.3,31.6z M266.3,48.4c-0.2-2.6-1.6-4.9-3.9-6.2c-1.6-0.9-3.5-1.2-5.3-1c-0.6,0.1-1.3,0.1-2.2,0.3l1.4,16.4
			c0.4,0,1.7-0.1,2.3-0.3c1.8-0.2,3.5-0.9,4.9-2c1-0.8,1.7-1.8,2.2-3C266.3,51.3,266.5,49.9,266.3,48.4L266.3,48.4z M344.4,50.4
			c1.5,16.6-9.9,30.4-26.9,31.9c-16.7,1.5-30.7-10.1-32.1-26.3s10.3-30.1,27.5-31.6C329.8,22.9,342.9,34.2,344.4,50.4L344.4,50.4
			L344.4,50.4z M330.8,51.8c-0.8-9.2-8-15.9-17.1-15.1c-9.4,0.8-15.5,8.5-14.7,18.1c0.8,9.4,8,16.1,17.6,15.2S331.6,61.2,330.8,51.8
			L330.8,51.8L330.8,51.8z M402.9,75l-1.8,0.2l-19.4-32l-13.8,34.9l-1.8,0.2l-22.6-55.8l13.7-1.1l10.3,25.9L379,19.9l1.9-0.2
			L397,44.5l5.4-27.1l12.6-1.1L402.9,75z M419.6,15.7l30-2.6l1,11.2L434,25.8l1,11l14.7-1.3l1,11.2L436,48l1,11.6l17-1.5l1,11.3
			L424.6,72L419.6,15.7z M458.7,12.5c1.2-0.2,3.2-0.5,5.1-0.8c1.6-0.2,5.1-0.6,7-0.8c3.9-0.4,7.8-0.3,11.6,0.3
			c5,0.9,11.8,4.4,12.7,14.8c0.5,6.2-2,10.9-4.1,13c-1,1.1-2.1,2.1-3.4,2.9v0.2c0.5,0.7,18.2,22.8,18.2,22.8l-15.1,1.3
			c0,0-9.9-13.5-15.2-20.5l-1.3,0.1l1.9,21.6l-12.7,1.1L458.7,12.5z M482.5,28.2c-0.4-4.4-3.3-6.8-7.7-6.4c-0.8,0.1-1.7,0.2-2.5,0.4
			l1.3,14.4c0.6,0,1.3,0,1.9-0.1c1.7-0.1,3.3-0.8,4.7-1.9C481.9,33,482.8,30.6,482.5,28.2L482.5,28.2L482.5,28.2z"/>
	</g>
	<path class="st1" d="M525.8,56.8c0,4.3-3.5,7.8-7.8,7.8c0,0,0,0-0.1,0c-4.4,0-7.9-3.5-7.9-7.9s3.5-7.9,7.9-7.9l0,0
		C522.3,48.9,525.8,52.4,525.8,56.8C525.8,56.7,525.8,56.8,525.8,56.8"/>
</g>
</svg>
