<?xml version="1.0" encoding="utf-8"?>
<!-- Generator: Adobe Illustrator 19.0.0, SVG Export Plug-In . SVG Version: 6.00 Build 0)  -->
<svg version="1.1" id="Layer_1" xmlns="http://www.w3.org/2000/svg" xmlns:xlink="http://www.w3.org/1999/xlink" x="0px" y="0px"
	 viewBox="0 0 233.335 70" style="enable-background:new 0 0 233.335 70;" xml:space="preserve">
<g>
	<linearGradient id="SVGID_1_" gradientUnits="userSpaceOnUse" x1="116.6673" y1="70" x2="116.6673" y2="-5.238689e-09">
		<stop  offset="0" style="stop-color:#3BA6DE"/>
		<stop  offset="1" style="stop-color:#024995"/>
	</linearGradient>
	<rect style="fill:url(#SVGID_1_);" width="233.335" height="70"/>
	<g>
		<g style="opacity:0.3;">
			<path style="fill:#12100B;" d="M183.634,20.641c-3.219,0-6.158,1.217-8.729,3.61c-2.562,2.389-4.093,5.325-4.553,8.73
				c-0.453,3.34,0.188,6.064,1.905,8.104c1.716,2.042,4.253,3.081,7.538,3.086h0.014c2.151,0,4.675-0.535,7.509-1.584l0.309-0.11
				l2.39-7.103l-1.43,0.584c-3.455,1.414-5.996,2.123-7.57,2.123c-1.279,0-2.195-0.393-2.795-1.206
				c-0.536-0.712-0.708-1.677-0.531-2.888l13.234,0.015l0.163-0.466c0.372-1.073,0.626-2.116,0.759-3.093
				c0.389-2.889-0.169-5.265-1.655-7.066C188.696,21.567,186.485,20.645,183.634,20.641z M184.793,28.74
				c-0.008,0.059-0.017,0.117-0.029,0.176l-5.405-0.005c1.001-1.683,2.174-2.502,3.581-2.502h0.002c0.688,0,1.174,0.195,1.495,0.594
				C184.778,27.426,184.89,27.993,184.793,28.74z M161.248,20.679c-1.1,0-2.343,0.089-3.922,0.408l2.441-9.137h-8.681l-8.624,32.037
				h8.675L152.497,39l2.021,4.988c0.502,0.267,1.031,0.545,2.309,0.545c3.93,0,8.244-2.922,10.944-7.951
				C170.4,31.692,172.94,20.679,161.248,20.679z M159.388,35.528c-0.444,0.82-1.023,1.652-1.687,2.199
				c-0.815,0.675-1.845,1.142-2.804,1.142c-0.595,0-1.5-0.188-2.088-1.047l2.893-10.842c0.404-0.138,1.201-0.361,2.161-0.361
				C162.755,26.619,160.391,33.658,159.388,35.528z M206.961,37.822c-0.059,0.003-0.117,0.013-0.176,0.026
				c-0.096,0.014-0.188,0.032-0.28,0.04c-0.087,0.012-0.172,0.026-0.26,0.041c-0.076,0.011-0.154,0.024-0.229,0.024
				c-0.151,0.022-0.298,0.043-0.443,0.06c-0.049,0.003-0.096,0.003-0.142,0.004c-0.116,0.013-0.222,0.024-0.32,0.033
				c-0.046,0.002-0.093,0.007-0.131,0.009c-0.136,0.012-0.268,0.019-0.38,0.019c-1.639,0-2.762-0.653-2.762-2.043
				c0-0.679,0.216-1.543,0.437-2.327l1.59-5.781h4.532l1.603-6.039h-4.538l1.646-6.048l-9.241,3.626l-0.643,2.422l-4.755,6.039
				h3.153l-2.114,7.686c-0.128,0.603-0.386,1.812-0.386,2.627c0,3.12,2.417,5.618,6.472,5.618c1.38,0,2.549-0.307,3.542-0.565
				l5.354-5.772l-0.861,0.174C207.426,37.743,207.194,37.776,206.961,37.822z"/>
			<path style="fill:#12100B;" d="M60.291,21.319c-1.206,0-1.855,0.265-2.46,0.521l-4.443,4.708l1.246-4.708h-8.197L38.321,52.1
				h8.202l2.331-8.631c1.335,0.298,2.458,0.388,3.496,0.388c11.047,0,14.241-10.404,14.241-15.021
				C66.591,24.084,64.005,21.319,60.291,21.319 M52.176,38.239c-0.905,0-1.55-0.213-1.859-0.341l2.767-10.231
				c0.991-0.82,1.943-0.997,2.508-0.997c0.902,0,1.639,0.437,2.065,1.08c0.347,0.52,0.478,1.298,0.478,2.078
				C58.134,31.597,56.796,38.239,52.176,38.239 M41.675,36.296c0-3.148-2.203-4.397-4.445-5.651
				c-1.511-0.817-2.247-1.252-2.247-2.242c0-1.253,1.171-1.818,2.591-1.818c2.679,0,4.619,1.64,5.224,2.158l1.514-5.656
				c-2.419-1.247-5.099-1.848-7.816-1.848c-2.503,0-4.792,0.513-6.473,1.681c-1.862,1.294-3.066,3.453-3.066,5.87
				c0,3.02,1.944,4.189,3.974,5.351c2.071,1.122,2.717,1.508,2.717,2.504c0,1.252-1.124,1.821-2.375,1.821
				c-2.158,0-4.447-1.428-6.346-2.638l-0.511,1.867l-0.283,1.043l-0.8,2.953c2.629,1.341,6.039,2.113,8.63,2.113
				C37.708,43.804,41.675,40.525,41.675,36.296 M79.877,21.238c-8.241,0-13.033,6.428-13.033,12.778
				c0,6.346,4.575,9.788,11.095,9.788c9.546,0,12.949-7.589,12.949-12.515C90.887,25.77,86.87,21.238,79.877,21.238 M77.809,38.418
				c-0.864,0-1.637-0.392-2.071-0.913c-0.603-0.69-0.737-1.633-0.737-2.544c0-2.202,1.21-8.291,4.875-8.291
				c1.042,0,2.81,0.526,2.81,3.545C82.687,32.155,81.52,38.418,77.809,38.418 M138.839,30.645c-1.505-0.817-2.246-1.252-2.246-2.242
				c0-1.253,1.173-1.818,2.597-1.818c2.673,0,4.617,1.64,5.224,2.158l1.508-5.656c-2.414-1.247-5.101-1.848-7.811-1.848
				c-2.505,0-4.799,0.513-6.479,1.681c-1.862,1.294-3.062,3.453-3.062,5.87c0,3.02,1.947,4.189,3.972,5.351
				c2.074,1.122,2.721,1.508,2.721,2.504c0,1.252-1.131,1.821-2.376,1.821c-2.165,0-4.449-1.428-6.348-2.638l-0.515,1.867
				c-0.201,0.048-0.435,0.081-0.664,0.127c-0.059,0.003-0.116,0.013-0.175,0.026c-0.098,0.014-0.19,0.033-0.282,0.04
				c-0.091,0.012-0.17,0.026-0.259,0.041c-0.078,0.011-0.157,0.024-0.227,0.024c-0.151,0.021-0.303,0.044-0.45,0.062
				c-0.047,0.002-0.092,0.002-0.139,0.004c-0.119,0.012-0.222,0.023-0.318,0.032c-0.051,0.002-0.094,0.007-0.13,0.009
				c-0.138,0.012-0.271,0.019-0.379,0.019c-1.644,0-2.767-0.653-2.767-2.043c0-0.679,0.219-1.543,0.438-2.326l1.59-5.782h4.532
				l1.607-6.039h-4.542l1.648-6.048l-9.244,3.626l-0.644,2.422l-4.754,6.039h3.152l-2.115,7.686
				c-0.129,0.603-0.385,1.812-0.385,2.626c0,3.12,2.416,5.618,6.468,5.618c1.387,0,2.553-0.309,3.543-0.565l4.216-4.554
				l-0.805,2.953c2.628,1.341,6.038,2.113,8.63,2.113c5.75,0,9.713-3.279,9.713-7.509C143.285,33.147,141.081,31.899,138.839,30.645
				 M109.143,21.497c-1.122,0-1.897,0.215-2.588,0.427l-4.704,4.746l1.295-4.782h-8.419l-5.697,21.32h8.371l4.062-15.145
				c0.648-0.264,1.424-0.52,2.549-0.52c0.643,0,1.639,0.08,2.799,0.555c1.426,0.515,2.162,1.163,2.765,1.685l2.071-7.771
				C111.13,21.794,110.4,21.497,109.143,21.497"/>
			<path style="fill:#12100B;" d="M143.285,54.701c-0.514-0.002-0.99,0.199-1.387,0.567c-0.404,0.371-0.655,0.826-0.725,1.342
				c-0.016,0.107-0.025,0.201-0.025,0.304c-0.001,0.4,0.132,0.783,0.389,1.098c0.309,0.383,0.757,0.583,1.267,0.583h0.008
				c0.51,0.002,0.981-0.193,1.389-0.565c0.407-0.36,0.661-0.825,0.729-1.351c0.006-0.091,0.016-0.191,0.016-0.279
				c0.002-0.412-0.135-0.792-0.393-1.101C144.239,54.907,143.788,54.697,143.285,54.701z M154.689,48.95
				c-0.695-0.228-1.522-0.335-2.461-0.335c-1.641,0-3.115,0.511-4.376,1.522c-1.261,1.007-2.02,2.284-2.218,3.774
				c-0.045,0.269-0.061,0.531-0.061,0.783c0,1.009,0.313,1.897,0.925,2.6c0.767,0.882,1.872,1.321,3.236,1.321h0.017
				c0.94,0,1.873-0.114,2.815-0.342l0.143-0.035l0.822-3.115l-0.463,0.189c-0.999,0.39-1.834,0.581-2.488,0.581
				c-0.696,0-1.152-0.175-1.438-0.473c-0.228-0.238-0.349-0.552-0.351-0.981c0-0.11,0.012-0.229,0.031-0.355
				c0.098-0.729,0.452-1.328,1.08-1.839c0.634-0.505,1.349-0.752,2.184-0.752c0.428-0.004,0.726,0.028,0.858,0.064
				c0.157,0.04,0.47,0.156,0.902,0.32l0.259,0.099l0.805-2.958L154.689,48.95z M164.656,52.433c0-0.99-0.305-1.854-0.911-2.535
				c-0.75-0.863-1.836-1.286-3.17-1.283c-1.445,0-2.782,0.528-3.947,1.56c-1.179,1.034-1.88,2.298-2.08,3.737
				c-0.037,0.248-0.049,0.487-0.049,0.714c-0.002,1.004,0.322,1.888,0.958,2.621c0.782,0.907,1.857,1.369,3.161,1.369h0.008
				c1.471,0.001,2.794-0.53,3.931-1.564c1.145-1.03,1.83-2.318,2.041-3.839C164.632,52.942,164.656,52.682,164.656,52.433z
				 M161.392,53.067c-0.1,0.714-0.387,1.367-0.872,1.973c-0.48,0.596-0.99,0.854-1.567,0.855h-0.008
				c-0.386-0.003-0.678-0.147-0.942-0.462c-0.197-0.244-0.293-0.54-0.293-0.94c0-0.108,0.008-0.224,0.021-0.348
				c0.092-0.666,0.371-1.306,0.837-1.928c0.462-0.612,0.966-0.881,1.592-0.885c0.468,0.004,0.774,0.153,0.993,0.453
				c0.175,0.241,0.262,0.526,0.266,0.906C161.418,52.81,161.406,52.937,161.392,53.067z M180.296,51.153
				c0-0.648-0.159-1.208-0.493-1.655c-0.437-0.599-1.136-0.886-1.996-0.882c-1.019,0.004-2.099,0.499-3.259,1.448
				c-0.254-0.94-1.055-1.479-2.175-1.448c-0.829,0.002-1.681,0.336-2.556,0.98l0.223-0.837h-3.137l-2.651,9.684h3.14l1.648-5.999
				c0.907-0.909,1.632-1.316,2.05-1.307c0.172,0.001,0.248,0.049,0.309,0.12c0.06,0.073,0.109,0.217,0.108,0.462
				c0,0.109-0.008,0.224-0.02,0.355c-0.035,0.221-0.088,0.492-0.174,0.805l-1.491,5.563h3.14l1.632-5.986
				c0.897-0.916,1.639-1.325,2.115-1.32c0.154,0.001,0.203,0.039,0.257,0.111c0.058,0.074,0.111,0.226,0.111,0.478
				c0,0.118-0.011,0.251-0.034,0.406c-0.028,0.214-0.082,0.448-0.154,0.72l-1.538,5.59h3.138l1.595-5.887
				c0.078-0.262,0.133-0.519,0.161-0.759C180.281,51.575,180.296,51.361,180.296,51.153z M182.292,54.701
				c-0.513-0.002-0.989,0.199-1.392,0.567c-0.403,0.37-0.652,0.826-0.721,1.342c-0.013,0.107-0.019,0.199-0.019,0.304
				c0,0.401,0.131,0.783,0.389,1.096c0.309,0.385,0.754,0.585,1.259,0.585h0.017c0.504,0.002,0.979-0.193,1.38-0.565
				c0.408-0.36,0.657-0.825,0.729-1.351c0.015-0.091,0.024-0.191,0.024-0.279c0.001-0.412-0.135-0.792-0.393-1.103
				C183.251,54.907,182.801,54.695,182.292,54.701z M195.285,48.927c-0.946-0.213-1.936-0.312-2.974-0.312
				c-2.098,0-3.81,0.528-5.111,1.612c-1.294,1.066-2.066,2.47-2.296,4.175c-0.041,0.291-0.06,0.581-0.06,0.849
				c0,0.827,0.192,1.546,0.586,2.149c0.509,0.797,1.294,1.216,2.248,1.216h0.017c0.753,0,1.505-0.234,2.259-0.69l-0.139,0.514h3.135
				l2.592-9.458L195.285,48.927z M190.654,55.379c-0.642,0.481-1.229,0.709-1.767,0.707c-0.337-0.009-0.508-0.113-0.659-0.347
				c-0.097-0.167-0.154-0.41-0.154-0.716c0-0.125,0.005-0.268,0.023-0.414c0.131-0.93,0.492-1.688,1.075-2.314
				c0.578-0.603,1.334-0.903,2.327-0.907c0.082,0,0.164,0.004,0.242,0.005L190.654,55.379z M202.42,48.758l-1.655,6.106
				c-0.875,0.839-1.621,1.225-2.172,1.221c-0.157-0.003-0.211-0.045-0.271-0.124c-0.062-0.074-0.113-0.253-0.112-0.517
				c0-0.129,0.016-0.278,0.035-0.45c0.04-0.284,0.12-0.64,0.229-1.038l1.417-5.198h-3.13l-1.656,6.008
				c-0.068,0.27-0.121,0.52-0.15,0.747c-0.034,0.221-0.048,0.433-0.048,0.632c-0.002,0.626,0.158,1.168,0.486,1.604
				c0.427,0.572,1.122,0.848,1.984,0.848h0.019c0.849,0,1.709-0.277,2.568-0.818l-0.194,0.662h3.149l2.647-9.682H202.42z"/>
		</g>
		<g>
			<g>
				<linearGradient id="SVGID_2_" gradientUnits="userSpaceOnUse" x1="176.2319" y1="44.2488" x2="176.2319" y2="11.6668">
					<stop  offset="0" style="stop-color:#F5A900"/>
					<stop  offset="0.2921" style="stop-color:#F5A900"/>
					<stop  offset="0.7135" style="stop-color:#FDD900"/>
					<stop  offset="1" style="stop-color:#FDD900"/>
				</linearGradient>
				<path style="fill:url(#SVGID_2_);" d="M183.634,20.358c-3.219,0-6.158,1.217-8.729,3.61c-2.562,2.389-4.093,5.325-4.553,8.73
					c-0.453,3.34,0.188,6.064,1.905,8.104c1.716,2.042,4.253,3.081,7.538,3.086h0.014c2.151,0,4.675-0.535,7.509-1.584l0.309-0.11
					l2.39-7.103l-1.43,0.584c-3.455,1.414-5.996,2.123-7.57,2.123c-1.279,0-2.195-0.393-2.795-1.206
					c-0.536-0.712-0.708-1.677-0.531-2.888l13.234,0.015l0.163-0.466c0.372-1.073,0.626-2.116,0.759-3.093
					c0.389-2.889-0.169-5.265-1.655-7.066C188.696,21.283,186.485,20.361,183.634,20.358z M184.793,28.456
					c-0.008,0.059-0.017,0.117-0.029,0.176l-5.405-0.005c1.001-1.683,2.174-2.502,3.581-2.502h0.002
					c0.688,0,1.174,0.195,1.495,0.594C184.778,27.143,184.89,27.709,184.793,28.456z M161.248,20.396
					c-1.1,0-2.343,0.089-3.922,0.408l2.441-9.137h-8.681l-8.624,32.037h8.675l1.359-4.988l2.021,4.988
					c0.502,0.267,1.031,0.545,2.309,0.545c3.93,0,8.244-2.922,10.944-7.951C170.4,31.408,172.94,20.396,161.248,20.396z
					 M159.388,35.244c-0.444,0.82-1.023,1.652-1.687,2.199c-0.815,0.675-1.845,1.142-2.804,1.142c-0.595,0-1.5-0.188-2.088-1.047
					l2.893-10.842c0.404-0.138,1.201-0.361,2.161-0.361C162.755,26.336,160.391,33.375,159.388,35.244z M206.961,37.538
					c-0.059,0.003-0.117,0.014-0.176,0.026c-0.096,0.014-0.188,0.032-0.28,0.04c-0.087,0.012-0.172,0.026-0.26,0.041
					c-0.076,0.011-0.154,0.024-0.229,0.024c-0.151,0.022-0.298,0.043-0.443,0.06c-0.049,0.003-0.096,0.003-0.142,0.004
					c-0.116,0.013-0.222,0.024-0.32,0.033c-0.046,0.002-0.093,0.007-0.131,0.009c-0.136,0.012-0.268,0.019-0.38,0.019
					c-1.639,0-2.762-0.653-2.762-2.043c0-0.679,0.216-1.543,0.437-2.327l1.59-5.781h4.532l1.603-6.039h-4.538l1.646-6.048
					l-9.241,3.626l-0.643,2.422l-4.755,6.039h3.153l-2.114,7.686c-0.128,0.603-0.386,1.812-0.386,2.627
					c0,3.12,2.417,5.618,6.472,5.618c1.38,0,2.549-0.307,3.542-0.565l5.354-5.772l-0.861,0.174
					C207.426,37.459,207.194,37.493,206.961,37.538z"/>
				<path style="fill:#FFFFFF;" d="M60.291,21.036c-1.206,0-1.855,0.265-2.46,0.521l-4.443,4.708l1.246-4.708h-8.197l-8.116,30.26
					h8.202l2.331-8.631c1.335,0.298,2.458,0.388,3.496,0.388c11.047,0,14.241-10.404,14.241-15.021
					C66.591,23.8,64.005,21.036,60.291,21.036 M52.176,37.956c-0.905,0-1.55-0.213-1.859-0.341l2.767-10.231
					c0.991-0.82,1.943-0.997,2.508-0.997c0.902,0,1.639,0.437,2.065,1.08c0.347,0.52,0.478,1.298,0.478,2.078
					C58.134,31.313,56.796,37.956,52.176,37.956 M41.675,36.012c0-3.148-2.203-4.397-4.445-5.651
					c-1.511-0.817-2.247-1.252-2.247-2.242c0-1.253,1.171-1.818,2.591-1.818c2.679,0,4.619,1.64,5.224,2.158l1.514-5.656
					c-2.419-1.247-5.099-1.848-7.816-1.848c-2.503,0-4.792,0.513-6.473,1.681c-1.862,1.294-3.066,3.453-3.066,5.87
					c0,3.02,1.944,4.189,3.974,5.351c2.071,1.122,2.717,1.508,2.717,2.504c0,1.252-1.124,1.821-2.375,1.821
					c-2.158,0-4.447-1.428-6.346-2.638l-0.511,1.867l-0.283,1.043l-0.8,2.953c2.629,1.341,6.039,2.113,8.63,2.113
					C37.708,43.521,41.675,40.242,41.675,36.012 M79.877,20.955c-8.241,0-13.033,6.428-13.033,12.778
					c0,6.346,4.575,9.788,11.095,9.788c9.546,0,12.949-7.589,12.949-12.515C90.887,25.486,86.87,20.955,79.877,20.955
					 M77.809,38.134c-0.864,0-1.637-0.392-2.071-0.913c-0.603-0.69-0.737-1.633-0.737-2.544c0-2.202,1.21-8.291,4.875-8.291
					c1.042,0,2.81,0.526,2.81,3.545C82.687,31.871,81.52,38.134,77.809,38.134 M138.839,30.362
					c-1.505-0.817-2.246-1.252-2.246-2.242c0-1.253,1.173-1.818,2.597-1.818c2.673,0,4.617,1.64,5.224,2.158l1.508-5.656
					c-2.414-1.247-5.101-1.848-7.811-1.848c-2.505,0-4.799,0.513-6.479,1.681c-1.862,1.294-3.062,3.453-3.062,5.87
					c0,3.02,1.947,4.189,3.972,5.351c2.074,1.122,2.721,1.508,2.721,2.504c0,1.252-1.131,1.821-2.376,1.821
					c-2.165,0-4.449-1.428-6.348-2.638l-0.515,1.867c-0.201,0.048-0.435,0.081-0.664,0.127c-0.059,0.003-0.116,0.014-0.175,0.026
					c-0.098,0.014-0.19,0.033-0.282,0.04c-0.091,0.012-0.17,0.026-0.259,0.041c-0.078,0.011-0.157,0.024-0.227,0.024
					c-0.151,0.021-0.303,0.044-0.45,0.062c-0.047,0.002-0.092,0.002-0.139,0.004c-0.119,0.012-0.222,0.023-0.318,0.032
					c-0.051,0.002-0.094,0.007-0.13,0.009c-0.138,0.012-0.271,0.019-0.379,0.019c-1.644,0-2.767-0.653-2.767-2.043
					c0-0.679,0.219-1.543,0.438-2.326l1.59-5.782h4.532l1.607-6.039h-4.542l1.648-6.048l-9.244,3.626l-0.644,2.422l-4.754,6.039
					h3.152l-2.115,7.686c-0.129,0.603-0.385,1.812-0.385,2.626c0,3.12,2.416,5.618,6.468,5.618c1.387,0,2.553-0.309,3.543-0.565
					l4.216-4.554l-0.805,2.953c2.628,1.341,6.038,2.113,8.63,2.113c5.75,0,9.713-3.279,9.713-7.509
					C143.285,32.864,141.081,31.616,138.839,30.362 M109.143,21.213c-1.122,0-1.897,0.215-2.588,0.427l-4.704,4.746l1.295-4.782
					h-8.419l-5.697,21.32h8.371l4.062-15.145c0.648-0.264,1.424-0.52,2.549-0.52c0.643,0,1.639,0.08,2.799,0.555
					c1.426,0.515,2.162,1.163,2.765,1.685l2.071-7.771C111.13,21.51,110.4,21.213,109.143,21.213"/>
				<path style="fill:#FFFFFF;" d="M143.285,54.417c-0.514-0.002-0.99,0.199-1.387,0.567c-0.404,0.371-0.655,0.826-0.725,1.342
					c-0.016,0.107-0.025,0.201-0.025,0.304c-0.001,0.4,0.132,0.783,0.389,1.098c0.309,0.383,0.757,0.583,1.267,0.583h0.008
					c0.51,0.002,0.981-0.193,1.389-0.565c0.407-0.36,0.661-0.825,0.729-1.351c0.006-0.091,0.016-0.191,0.016-0.279
					c0.002-0.412-0.135-0.792-0.393-1.101C144.239,54.623,143.788,54.414,143.285,54.417z M154.689,48.667
					c-0.695-0.228-1.522-0.335-2.461-0.335c-1.641,0-3.115,0.511-4.376,1.522c-1.261,1.007-2.02,2.284-2.218,3.774
					c-0.045,0.269-0.061,0.531-0.061,0.783c0,1.009,0.313,1.897,0.925,2.6c0.767,0.882,1.872,1.321,3.236,1.321h0.017
					c0.94,0,1.873-0.114,2.815-0.342l0.143-0.035l0.822-3.115l-0.463,0.189c-0.999,0.39-1.834,0.581-2.488,0.581
					c-0.696,0-1.152-0.175-1.438-0.473c-0.228-0.238-0.349-0.552-0.351-0.981c0-0.11,0.012-0.229,0.031-0.355
					c0.098-0.729,0.452-1.328,1.08-1.839c0.634-0.505,1.349-0.752,2.184-0.752c0.428-0.004,0.726,0.028,0.858,0.064
					c0.157,0.04,0.47,0.156,0.902,0.32l0.259,0.099l0.805-2.958L154.689,48.667z M164.656,52.15c0-0.99-0.305-1.854-0.911-2.535
					c-0.75-0.863-1.836-1.286-3.17-1.283c-1.445,0-2.782,0.528-3.947,1.56c-1.179,1.034-1.88,2.298-2.08,3.737
					c-0.037,0.248-0.049,0.487-0.049,0.714c-0.002,1.004,0.322,1.888,0.958,2.621c0.782,0.907,1.857,1.369,3.161,1.369h0.008
					c1.471,0.001,2.794-0.53,3.931-1.564c1.145-1.03,1.83-2.318,2.041-3.839C164.632,52.658,164.656,52.399,164.656,52.15z
					 M161.392,52.783c-0.1,0.714-0.387,1.367-0.872,1.973c-0.48,0.596-0.99,0.854-1.567,0.855h-0.008
					c-0.386-0.003-0.678-0.147-0.942-0.462c-0.197-0.244-0.293-0.54-0.293-0.94c0-0.108,0.008-0.224,0.021-0.348
					c0.092-0.666,0.371-1.306,0.837-1.928c0.462-0.612,0.966-0.881,1.592-0.885c0.468,0.004,0.774,0.153,0.993,0.453
					c0.175,0.241,0.262,0.526,0.266,0.906C161.418,52.526,161.406,52.653,161.392,52.783z M180.296,50.869
					c0-0.648-0.159-1.208-0.493-1.655c-0.437-0.599-1.136-0.886-1.996-0.882c-1.019,0.004-2.099,0.499-3.259,1.448
					c-0.254-0.94-1.055-1.479-2.175-1.448c-0.829,0.002-1.681,0.336-2.556,0.98l0.223-0.837h-3.137l-2.651,9.684h3.14l1.648-5.999
					c0.907-0.909,1.632-1.316,2.05-1.307c0.172,0.001,0.248,0.049,0.309,0.12c0.06,0.073,0.109,0.217,0.108,0.462
					c0,0.109-0.008,0.224-0.02,0.355c-0.035,0.221-0.088,0.492-0.174,0.805l-1.491,5.563h3.14l1.632-5.986
					c0.897-0.916,1.639-1.325,2.115-1.32c0.154,0.001,0.203,0.039,0.257,0.111c0.058,0.074,0.111,0.226,0.111,0.478
					c0,0.118-0.011,0.251-0.034,0.406c-0.028,0.214-0.082,0.448-0.154,0.72l-1.538,5.59h3.138l1.595-5.887
					c0.078-0.262,0.133-0.519,0.161-0.759C180.281,51.292,180.296,51.077,180.296,50.869z M182.292,54.417
					c-0.513-0.002-0.989,0.199-1.392,0.567c-0.403,0.37-0.652,0.826-0.721,1.342c-0.013,0.107-0.019,0.199-0.019,0.304
					c0,0.401,0.131,0.783,0.389,1.096c0.309,0.385,0.754,0.585,1.259,0.585h0.017c0.504,0.002,0.979-0.193,1.38-0.565
					c0.408-0.36,0.657-0.825,0.729-1.351c0.015-0.091,0.024-0.191,0.024-0.279c0.001-0.412-0.135-0.792-0.393-1.103
					C183.251,54.623,182.801,54.412,182.292,54.417z M195.285,48.644c-0.946-0.213-1.936-0.312-2.974-0.312
					c-2.098,0-3.81,0.528-5.111,1.612c-1.294,1.066-2.066,2.47-2.296,4.175c-0.041,0.291-0.06,0.581-0.06,0.849
					c0,0.827,0.192,1.546,0.586,2.149c0.509,0.797,1.294,1.216,2.248,1.216h0.017c0.753,0,1.505-0.234,2.259-0.69l-0.139,0.514
					h3.135l2.592-9.458L195.285,48.644z M190.654,55.095c-0.642,0.481-1.229,0.709-1.767,0.707
					c-0.337-0.009-0.508-0.113-0.659-0.347c-0.097-0.167-0.154-0.41-0.154-0.716c0-0.125,0.005-0.268,0.023-0.414
					c0.131-0.93,0.492-1.688,1.075-2.314c0.578-0.603,1.334-0.903,2.327-0.907c0.082,0,0.164,0.004,0.242,0.005L190.654,55.095z
					 M202.42,48.475l-1.655,6.106c-0.875,0.839-1.621,1.225-2.172,1.221c-0.157-0.003-0.211-0.045-0.271-0.124
					c-0.062-0.074-0.113-0.253-0.112-0.517c0-0.129,0.016-0.278,0.035-0.45c0.04-0.284,0.12-0.64,0.229-1.038l1.417-5.198h-3.13
					l-1.656,6.008c-0.068,0.27-0.121,0.52-0.15,0.747c-0.034,0.221-0.048,0.433-0.048,0.632c-0.002,0.626,0.158,1.168,0.486,1.604
					c0.427,0.572,1.122,0.848,1.984,0.848h0.019c0.849,0,1.709-0.277,2.568-0.818l-0.194,0.662h3.149l2.647-9.682H202.42z"/>
			</g>
		</g>
	</g>
</g>
<g>
</g>
<g>
</g>
<g>
</g>
<g>
</g>
<g>
</g>
<g>
</g>
</svg>
